<?xml version="1.0" encoding="UTF-8"?>
<svg width="100px" height="125px" viewBox="0 0 100 125" version="1.1" xmlns="http://www.w3.org/2000/svg" xmlns:xlink="http://www.w3.org/1999/xlink">
    <title>Combined Shape</title>
    <g id="Symbols" stroke="none" stroke-width="1" fill="none" fill-rule="evenodd">
        <g id="pattern-/-bricks-/-7" fill="#FF351F">
            <path d="M99.875,100.5 L99.875,125.00025 L25.125,125 L25.125,100.5 L99.875,100.5 Z M93.75,115.511 C91.892,115.511 90.38575,117.01725 90.38575,118.87525 C90.38575,120.7335 91.892,122.23975 93.75,122.23975 C95.60825,122.23975 97.1145,120.7335 97.1145,118.87525 C97.1145,117.01725 95.60825,115.511 93.75,115.511 Z M81.5,115.51075 C79.642,115.51075 78.13575,117.017 78.13575,118.875 C78.13575,120.7335 79.642,122.23975 81.5,122.23975 C83.35825,122.23975 84.8645,120.7335 84.8645,118.875 C84.8645,117.017 83.35825,115.51075 81.5,115.51075 Z M68.625,115.511 C66.767,115.511 65.26075,117.01725 65.26075,118.87525 C65.26075,120.7335 66.767,122.23975 68.625,122.23975 C70.48325,122.23975 71.9895,120.7335 71.9895,118.87525 C71.9895,117.01725 70.48325,115.511 68.625,115.511 Z M56.375,115.51075 C54.517,115.51075 53.01075,117.017 53.01075,118.875 C53.01075,120.7335 54.517,122.23975 56.375,122.23975 C58.23325,122.23975 59.7395,120.7335 59.7395,118.875 C59.7395,117.017 58.23325,115.51075 56.375,115.51075 Z M43.5,115.511 C41.642,115.511 40.13575,117.01725 40.13575,118.87525 C40.13575,120.7335 41.642,122.23975 43.5,122.23975 C45.35825,122.23975 46.8645,120.7335 46.8645,118.87525 C46.8645,117.01725 45.35825,115.511 43.5,115.511 Z M31.25,115.51075 C29.392,115.51075 27.88575,117.017 27.88575,118.875 C27.88575,120.7335 29.392,122.23975 31.25,122.23975 C33.10825,122.23975 34.6145,120.7335 34.6145,118.875 C34.6145,117.017 33.10825,115.51075 31.25,115.51075 Z M93.75,103.26075 C91.892,103.26075 90.38575,104.767 90.38575,106.625 C90.38575,108.4835 91.892,109.98975 93.75,109.98975 C95.60825,109.98975 97.1145,108.4835 97.1145,106.625 C97.1145,104.767 95.60825,103.26075 93.75,103.26075 Z M81.5,103.26075 C79.642,103.26075 78.13575,104.767 78.13575,106.625 C78.13575,108.48325 79.642,109.9895 81.5,109.9895 C83.35825,109.9895 84.8645,108.48325 84.8645,106.625 C84.8645,104.767 83.35825,103.26075 81.5,103.26075 Z M68.625,103.26075 C66.767,103.26075 65.26075,104.767 65.26075,106.625 C65.26075,108.4835 66.767,109.98975 68.625,109.98975 C70.48325,109.98975 71.9895,108.4835 71.9895,106.625 C71.9895,104.767 70.48325,103.26075 68.625,103.26075 Z M56.375,103.26075 C54.517,103.26075 53.01075,104.767 53.01075,106.625 C53.01075,108.48325 54.517,109.9895 56.375,109.9895 C58.23325,109.9895 59.7395,108.48325 59.7395,106.625 C59.7395,104.767 58.23325,103.26075 56.375,103.26075 Z M43.5,103.26075 C41.642,103.26075 40.13575,104.767 40.13575,106.625 C40.13575,108.4835 41.642,109.98975 43.5,109.98975 C45.35825,109.98975 46.8645,108.4835 46.8645,106.625 C46.8645,104.767 45.35825,103.26075 43.5,103.26075 Z M31.25,103.26075 C29.392,103.26075 27.88575,104.767 27.88575,106.625 C27.88575,108.48325 29.392,109.9895 31.25,109.9895 C33.10825,109.9895 34.6145,108.48325 34.6145,106.625 C34.6145,104.767 33.10825,103.26075 31.25,103.26075 Z M24.5,75.375 L24.5,99.87525 L0,99.875 L0,75.375 L24.5,75.375 Z M18.375,90.386 C16.517,90.386 15.01075,91.89225 15.01075,93.75025 C15.01075,95.6085 16.517,97.11475 18.375,97.11475 C20.23325,97.11475 21.7395,95.6085 21.7395,93.75025 C21.7395,91.89225 20.23325,90.386 18.375,90.386 Z M6.125,90.38575 C4.267,90.38575 2.76075,91.892 2.76075,93.75 C2.76075,95.6085 4.267,97.11475 6.125,97.11475 C7.98325,97.11475 9.4895,95.6085 9.4895,93.75 C9.4895,91.892 7.98325,90.38575 6.125,90.38575 Z M6.125,78.13575 C4.267,78.13575 2.76075,79.642 2.76075,81.5 C2.76075,83.35825 4.267,84.8645 6.125,84.8645 C7.98325,84.8645 9.4895,83.35825 9.4895,81.5 C9.4895,79.642 7.98325,78.13575 6.125,78.13575 Z M18.375,78.13575 C16.517,78.13575 15.01075,79.642 15.01075,81.5 C15.01075,83.3585 16.517,84.86475 18.375,84.86475 C20.23325,84.86475 21.7395,83.3585 21.7395,81.5 C21.7395,79.642 20.23325,78.13575 18.375,78.13575 Z M74.75,50.25 L74.75,74.75025 L50.25,74.75 L50.25,50.25 L74.75,50.25 Z M68.625,65.261 C66.767,65.261 65.26075,66.76725 65.26075,68.62525 C65.26075,70.4835 66.767,71.98975 68.625,71.98975 C70.48325,71.98975 71.9895,70.4835 71.9895,68.62525 C71.9895,66.76725 70.48325,65.261 68.625,65.261 Z M56.375,65.26075 C54.517,65.26075 53.01075,66.767 53.01075,68.625 C53.01075,70.4835 54.517,71.98975 56.375,71.98975 C58.23325,71.98975 59.7395,70.4835 59.7395,68.625 C59.7395,66.767 58.23325,65.26075 56.375,65.26075 Z M56.375,53.01075 C54.517,53.01075 53.01075,54.517 53.01075,56.375 C53.01075,58.23325 54.517,59.7395 56.375,59.7395 C58.23325,59.7395 59.7395,58.23325 59.7395,56.375 C59.7395,54.517 58.23325,53.01075 56.375,53.01075 Z M68.625,53.01075 C66.767,53.01075 65.26075,54.517 65.26075,56.375 C65.26075,58.2335 66.767,59.73975 68.625,59.73975 C70.48325,59.73975 71.9895,58.2335 71.9895,56.375 C71.9895,54.517 70.48325,53.01075 68.625,53.01075 Z M74.75,25.125 L74.75,49.62525 L50.25,49.625 L50.25,25.125 L74.75,25.125 Z M49.625,5.68434189e-14 L49.625,49.62525 L25.125,49.62525 L25.125,5.68434189e-14 L49.625,5.68434189e-14 Z M68.625,40.136 C66.767,40.136 65.26075,41.64225 65.26075,43.50025 C65.26075,45.3585 66.767,46.86475 68.625,46.86475 C70.48325,46.86475 71.9895,45.3585 71.9895,43.50025 C71.9895,41.64225 70.48325,40.136 68.625,40.136 Z M56.375,40.13575 C54.517,40.13575 53.01075,41.642 53.01075,43.5 C53.01075,45.3585 54.517,46.86475 56.375,46.86475 C58.23325,46.86475 59.7395,45.3585 59.7395,43.5 C59.7395,41.642 58.23325,40.13575 56.375,40.13575 Z M43.5,40.136 C41.642,40.136 40.13575,41.64225 40.13575,43.50025 C40.13575,45.3585 41.642,46.86475 43.5,46.86475 C45.35825,46.86475 46.8645,45.3585 46.8645,43.50025 C46.8645,41.64225 45.35825,40.136 43.5,40.136 Z M31.25,40.13575 C29.392,40.13575 27.88575,41.642 27.88575,43.5 C27.88575,45.3585 29.392,46.86475 31.25,46.86475 C33.10825,46.86475 34.6145,45.3585 34.6145,43.5 C34.6145,41.642 33.10825,40.13575 31.25,40.13575 Z M56.375,27.88575 C54.517,27.88575 53.01075,29.392 53.01075,31.25 C53.01075,33.10825 54.517,34.6145 56.375,34.6145 C58.23325,34.6145 59.7395,33.10825 59.7395,31.25 C59.7395,29.392 58.23325,27.88575 56.375,27.88575 Z M68.625,27.88575 C66.767,27.88575 65.26075,29.392 65.26075,31.25 C65.26075,33.1085 66.767,34.61475 68.625,34.61475 C70.48325,34.61475 71.9895,33.1085 71.9895,31.25 C71.9895,29.392 70.48325,27.88575 68.625,27.88575 Z M43.5,27.88575 C41.642,27.88575 40.13575,29.392 40.13575,31.25 C40.13575,33.1085 41.642,34.61475 43.5,34.61475 C45.35825,34.61475 46.8645,33.1085 46.8645,31.25 C46.8645,29.392 45.35825,27.88575 43.5,27.88575 Z M31.25,27.88575 C29.392,27.88575 27.88575,29.392 27.88575,31.25 C27.88575,33.10825 29.392,34.6145 31.25,34.6145 C33.10825,34.6145 34.6145,33.10825 34.6145,31.25 C34.6145,29.392 33.10825,27.88575 31.25,27.88575 Z M24.5,5.68434189e-14 L24.5,24.50025 L0,24.5 L0,5.68434189e-14 L24.5,5.68434189e-14 Z M31.25,15.01075 C29.392,15.01075 27.88575,16.517 27.88575,18.375 C27.88575,20.2335 29.392,21.73975 31.25,21.73975 C33.10825,21.73975 34.6145,20.2335 34.6145,18.375 C34.6145,16.517 33.10825,15.01075 31.25,15.01075 Z M43.5,15.011 C41.642,15.011 40.13575,16.51725 40.13575,18.37525 C40.13575,20.2335 41.642,21.73975 43.5,21.73975 C45.35825,21.73975 46.8645,20.2335 46.8645,18.37525 C46.8645,16.51725 45.35825,15.011 43.5,15.011 Z M18.375,15.011 C16.517,15.011 15.01075,16.51725 15.01075,18.37525 C15.01075,20.2335 16.517,21.73975 18.375,21.73975 C20.23325,21.73975 21.7395,20.2335 21.7395,18.37525 C21.7395,16.51725 20.23325,15.011 18.375,15.011 Z M6.125,15.01075 C4.267,15.01075 2.76075,16.517 2.76075,18.375 C2.76075,20.2335 4.267,21.73975 6.125,21.73975 C7.98325,21.73975 9.4895,20.2335 9.4895,18.375 C9.4895,16.517 7.98325,15.01075 6.125,15.01075 Z M31.25,2.76075 C29.392,2.76075 27.88575,4.267 27.88575,6.125 C27.88575,7.98325 29.392,9.4895 31.25,9.4895 C33.10825,9.4895 34.6145,7.98325 34.6145,6.125 C34.6145,4.267 33.10825,2.76075 31.25,2.76075 Z M43.5,2.76075 C41.642,2.76075 40.13575,4.267 40.13575,6.125 C40.13575,7.9835 41.642,9.48975 43.5,9.48975 C45.35825,9.48975 46.8645,7.9835 46.8645,6.125 C46.8645,4.267 45.35825,2.76075 43.5,2.76075 Z M6.125,2.76075 C4.267,2.76075 2.76075,4.267 2.76075,6.125 C2.76075,7.98325 4.267,9.4895 6.125,9.4895 C7.98325,9.4895 9.4895,7.98325 9.4895,6.125 C9.4895,4.267 7.98325,2.76075 6.125,2.76075 Z M18.375,2.76075 C16.517,2.76075 15.01075,4.267 15.01075,6.125 C15.01075,7.9835 16.517,9.48975 18.375,9.48975 C20.23325,9.48975 21.7395,7.9835 21.7395,6.125 C21.7395,4.267 20.23325,2.76075 18.375,2.76075 Z" id="Combined-Shape"></path>
        </g>
    </g>
</svg>