<?xml version="1.0" encoding="UTF-8"?>
<svg width="249px" height="415px" viewBox="0 0 249 415" version="1.1" xmlns="http://www.w3.org/2000/svg" xmlns:xlink="http://www.w3.org/1999/xlink">
    <title>6</title>
    <g id="Page-1" stroke="none" stroke-width="1" fill="none" fill-rule="evenodd">
        <g id="6" fill="#FF8F63" fill-rule="nonzero">
            <path d="M81.34,250.24583 L81.34,333.66083 L164.755,333.66083 L164.755,415.00166 L0,415.00166 L0,250.24583 L81.34,250.24583 Z M144.42,383.49735 C138.25144,383.49735 133.25069,388.4981 133.25069,394.66666 C133.25069,400.83605 138.25144,405.8368 144.42,405.8368 C150.58939,405.8368 155.59014,400.83605 155.59014,394.66666 C155.59014,388.4981 150.58939,383.49735 144.42,383.49735 Z M103.75,383.49652 C97.58144,383.49652 92.58069,388.49727 92.58069,394.66583 C92.58069,400.83605 97.58144,405.8368 103.75,405.8368 C109.91939,405.8368 114.92014,400.83605 114.92014,394.66583 C114.92014,388.49727 109.91939,383.49652 103.75,383.49652 Z M61.005,383.49735 C54.83644,383.49735 49.83569,388.4981 49.83569,394.66666 C49.83569,400.83605 54.83644,405.8368 61.005,405.8368 C67.17439,405.8368 72.17514,400.83605 72.17514,394.66666 C72.17514,388.4981 67.17439,383.49735 61.005,383.49735 Z M20.335,383.49652 C14.16644,383.49652 9.16569,388.49727 9.16569,394.66583 C9.16569,400.83605 14.16644,405.8368 20.335,405.8368 C26.50439,405.8368 31.50514,400.83605 31.50514,394.66583 C31.50514,388.49727 26.50439,383.49652 20.335,383.49652 Z M144.42,342.82652 C138.25144,342.82652 133.25069,347.82727 133.25069,353.99583 C133.25069,360.16605 138.25144,365.1668 144.42,365.1668 C150.58939,365.1668 155.59014,360.16605 155.59014,353.99583 C155.59014,347.82727 150.58939,342.82652 144.42,342.82652 Z M103.75,342.82652 C97.58144,342.82652 92.58069,347.82727 92.58069,353.99583 C92.58069,360.16522 97.58144,365.16597 103.75,365.16597 C109.91939,365.16597 114.92014,360.16522 114.92014,353.99583 C114.92014,347.82727 109.91939,342.82652 103.75,342.82652 Z M61.005,342.82652 C54.83644,342.82652 49.83569,347.82727 49.83569,353.99583 C49.83569,360.16605 54.83644,365.1668 61.005,365.1668 C67.17439,365.1668 72.17514,360.16605 72.17514,353.99583 C72.17514,347.82727 67.17439,342.82652 61.005,342.82652 Z M20.335,342.82652 C14.16644,342.82652 9.16569,347.82727 9.16569,353.99583 C9.16569,360.16522 14.16644,365.16597 20.335,365.16597 C26.50439,365.16597 31.50514,360.16522 31.50514,353.99583 C31.50514,347.82727 26.50439,342.82652 20.335,342.82652 Z M20.335,300.08152 C14.16644,300.08152 9.16569,305.08227 9.16569,311.25083 C9.16569,317.42105 14.16644,322.4218 20.335,322.4218 C26.50439,322.4218 31.50514,317.42105 31.50514,311.25083 C31.50514,305.08227 26.50439,300.08152 20.335,300.08152 Z M61.005,300.08235 C54.83644,300.08235 49.83569,305.0831 49.83569,311.25166 C49.83569,317.42105 54.83644,322.4218 61.005,322.4218 C67.17439,322.4218 72.17514,317.42105 72.17514,311.25166 C72.17514,305.0831 67.17439,300.08235 61.005,300.08235 Z M20.335,259.41152 C14.16644,259.41152 9.16569,264.41227 9.16569,270.58083 C9.16569,276.75022 14.16644,281.75097 20.335,281.75097 C26.50439,281.75097 31.50514,276.75022 31.50514,270.58083 C31.50514,264.41227 26.50439,259.41152 20.335,259.41152 Z M61.005,259.41152 C54.83644,259.41152 49.83569,264.41227 49.83569,270.58083 C49.83569,276.75105 54.83644,281.7518 61.005,281.7518 C67.17439,281.7518 72.17514,276.75105 72.17514,270.58083 C72.17514,264.41227 67.17439,259.41152 61.005,259.41152 Z M248.17,166.83 L248.17,248.17083 L166.83,248.17 L166.83,166.83 L248.17,166.83 Z M227.835,216.66652 C221.66644,216.66652 216.66569,221.66727 216.66569,227.83583 C216.66569,234.00522 221.66644,239.00597 227.835,239.00597 C234.00439,239.00597 239.00514,234.00522 239.00514,227.83583 C239.00514,221.66727 234.00439,216.66652 227.835,216.66652 Z M187.165,216.66569 C180.99644,216.66569 175.99569,221.66644 175.99569,227.835 C175.99569,234.00522 180.99644,239.00597 187.165,239.00597 C193.33439,239.00597 198.33514,234.00522 198.33514,227.835 C198.33514,221.66644 193.33439,216.66569 187.165,216.66569 Z M187.165,175.99569 C180.99644,175.99569 175.99569,180.99644 175.99569,187.165 C175.99569,193.33439 180.99644,198.33514 187.165,198.33514 C193.33439,198.33514 198.33514,193.33439 198.33514,187.165 C198.33514,180.99644 193.33439,175.99569 187.165,175.99569 Z M227.835,175.99569 C221.66644,175.99569 216.66569,180.99644 216.66569,187.165 C216.66569,193.33522 221.66644,198.33597 227.835,198.33597 C234.00439,198.33597 239.00514,193.33522 239.00514,187.165 C239.00514,180.99644 234.00439,175.99569 227.835,175.99569 Z M164.755,0.00083 L164.755,164.75666 L83.415,164.75666 L83.415,0.00083 L164.755,0.00083 Z M103.75,133.25152 C97.58144,133.25152 92.58069,138.25227 92.58069,144.42083 C92.58069,150.59105 97.58144,155.5918 103.75,155.5918 C109.91939,155.5918 114.92014,150.59105 114.92014,144.42083 C114.92014,138.25227 109.91939,133.25152 103.75,133.25152 Z M144.42,133.25235 C138.25144,133.25235 133.25069,138.2531 133.25069,144.42166 C133.25069,150.59105 138.25144,155.5918 144.42,155.5918 C150.58939,155.5918 155.59014,150.59105 155.59014,144.42166 C155.59014,138.2531 150.58939,133.25235 144.42,133.25235 Z M144.42,92.58152 C138.25144,92.58152 133.25069,97.58227 133.25069,103.75083 C133.25069,109.92105 138.25144,114.9218 144.42,114.9218 C150.58939,114.9218 155.59014,109.92105 155.59014,103.75083 C155.59014,97.58227 150.58939,92.58152 144.42,92.58152 Z M103.75,92.58152 C97.58144,92.58152 92.58069,97.58227 92.58069,103.75083 C92.58069,109.92022 97.58144,114.92097 103.75,114.92097 C109.91939,114.92097 114.92014,109.92022 114.92014,103.75083 C114.92014,97.58227 109.91939,92.58152 103.75,92.58152 Z M81.34,1.88720151e-13 L81.34,81.34083 L0,81.34 L0,1.88720151e-13 L81.34,1.88720151e-13 Z M103.75,49.83652 C97.58144,49.83652 92.58069,54.83727 92.58069,61.00583 C92.58069,67.17605 97.58144,72.1768 103.75,72.1768 C109.91939,72.1768 114.92014,67.17605 114.92014,61.00583 C114.92014,54.83727 109.91939,49.83652 103.75,49.83652 Z M144.42,49.83735 C138.25144,49.83735 133.25069,54.8381 133.25069,61.00666 C133.25069,67.17605 138.25144,72.1768 144.42,72.1768 C150.58939,72.1768 155.59014,67.17605 155.59014,61.00666 C155.59014,54.8381 150.58939,49.83735 144.42,49.83735 Z M61.005,49.83652 C54.83644,49.83652 49.83569,54.83727 49.83569,61.00583 C49.83569,67.17522 54.83644,72.17597 61.005,72.17597 C67.17439,72.17597 72.17514,67.17522 72.17514,61.00583 C72.17514,54.83727 67.17439,49.83652 61.005,49.83652 Z M20.335,49.83569 C14.16644,49.83569 9.16569,54.83644 9.16569,61.005 C9.16569,67.17522 14.16644,72.17597 20.335,72.17597 C26.50439,72.17597 31.50514,67.17522 31.50514,61.005 C31.50514,54.83644 26.50439,49.83569 20.335,49.83569 Z M144.42,9.16652 C138.25144,9.16652 133.25069,14.16727 133.25069,20.33583 C133.25069,26.50605 138.25144,31.5068 144.42,31.5068 C150.58939,31.5068 155.59014,26.50605 155.59014,20.33583 C155.59014,14.16727 150.58939,9.16652 144.42,9.16652 Z M103.75,9.16652 C97.58144,9.16652 92.58069,14.16727 92.58069,20.33583 C92.58069,26.50522 97.58144,31.50597 103.75,31.50597 C109.91939,31.50597 114.92014,26.50522 114.92014,20.33583 C114.92014,14.16727 109.91939,9.16652 103.75,9.16652 Z M20.335,9.16569 C14.16644,9.16569 9.16569,14.16644 9.16569,20.335 C9.16569,26.50439 14.16644,31.50514 20.335,31.50514 C26.50439,31.50514 31.50514,26.50439 31.50514,20.335 C31.50514,14.16644 26.50439,9.16569 20.335,9.16569 Z M61.005,9.16569 C54.83644,9.16569 49.83569,14.16644 49.83569,20.335 C49.83569,26.50522 54.83644,31.50597 61.005,31.50597 C67.17439,31.50597 72.17514,26.50522 72.17514,20.335 C72.17514,14.16644 67.17439,9.16569 61.005,9.16569 Z" id="Combined-Shape"></path>
        </g>
    </g>
</svg>