<?xml version="1.0" encoding="UTF-8"?>
<svg width="151px" height="75px" viewBox="0 0 151 75" version="1.1" xmlns="http://www.w3.org/2000/svg" xmlns:xlink="http://www.w3.org/1999/xlink">
    <title>Fill 9</title>
    <g id="Symbols" stroke="none" stroke-width="1" fill="none" fill-rule="evenodd">
        <g id="pattern-/-bricks-/-3" fill="#FF351F">
            <path d="M68.625,71.98975 C66.767,71.98975 65.26075,70.4835 65.26075,68.62525 C65.26075,66.76725 66.767,65.261 68.625,65.261 C70.48325,65.261 71.9895,66.76725 71.9895,68.62525 C71.9895,70.4835 70.48325,71.98975 68.625,71.98975 L68.625,71.98975 Z M56.375,71.98975 C54.517,71.98975 53.01075,70.4835 53.01075,68.625 C53.01075,66.767 54.517,65.26075 56.375,65.26075 C58.23325,65.26075 59.7395,66.767 59.7395,68.625 C59.7395,70.4835 58.23325,71.98975 56.375,71.98975 L56.375,71.98975 Z M56.375,53.01075 C58.23325,53.01075 59.7395,54.517 59.7395,56.375 C59.7395,58.23325 58.23325,59.7395 56.375,59.7395 C54.517,59.7395 53.01075,58.23325 53.01075,56.375 C53.01075,54.517 54.517,53.01075 56.375,53.01075 L56.375,53.01075 Z M68.625,53.01075 C70.48325,53.01075 71.9895,54.517 71.9895,56.375 C71.9895,58.2335 70.48325,59.73975 68.625,59.73975 C66.767,59.73975 65.26075,58.2335 65.26075,56.375 C65.26075,54.517 66.767,53.01075 68.625,53.01075 L68.625,53.01075 Z M50.25,50.25 L50.25,74.75 L74.75,74.75025 L74.75,50.25 L50.25,50.25 Z M18.375,71.98975 C16.517,71.98975 15.01075,70.4835 15.01075,68.62525 C15.01075,66.76725 16.517,65.261 18.375,65.261 C20.23325,65.261 21.7395,66.76725 21.7395,68.62525 C21.7395,70.4835 20.23325,71.98975 18.375,71.98975 L18.375,71.98975 Z M6.125,71.98975 C4.267,71.98975 2.76075,70.4835 2.76075,68.625 C2.76075,66.767 4.267,65.26075 6.125,65.26075 C7.98325,65.26075 9.4895,66.767 9.4895,68.625 C9.4895,70.4835 7.98325,71.98975 6.125,71.98975 L6.125,71.98975 Z M6.125,53.01075 C7.98325,53.01075 9.4895,54.517 9.4895,56.375 C9.4895,58.23325 7.98325,59.7395 6.125,59.7395 C4.267,59.7395 2.76075,58.23325 2.76075,56.375 C2.76075,54.517 4.267,53.01075 6.125,53.01075 L6.125,53.01075 Z M18.375,53.01075 C20.23325,53.01075 21.7395,54.517 21.7395,56.375 C21.7395,58.2335 20.23325,59.73975 18.375,59.73975 C16.517,59.73975 15.01075,58.2335 15.01075,56.375 C15.01075,54.517 16.517,53.01075 18.375,53.01075 L18.375,53.01075 Z M0,50.25 L0,74.75 L24.5,74.75025 L24.5,50.25 L0,50.25 Z M144,34.61475 C142.14225,34.61475 140.63575,33.1085 140.63575,31.25 C140.63575,29.392 142.14225,27.88575 144,27.88575 C145.85825,27.88575 147.3645,29.392 147.3645,31.25 C147.3645,33.1085 145.85825,34.61475 144,34.61475 L144,34.61475 Z M144,46.86475 C142.14225,46.86475 140.63575,45.3585 140.63575,43.50025 C140.63575,41.64225 142.14225,40.136 144,40.136 C145.85825,40.136 147.3645,41.64225 147.3645,43.50025 C147.3645,45.3585 145.85825,46.86475 144,46.86475 L144,46.86475 Z M131.75,34.6145 C129.89225,34.6145 128.38575,33.10825 128.38575,31.25 C128.38575,29.392 129.89225,27.88575 131.75,27.88575 C133.60825,27.88575 135.1145,29.392 135.1145,31.25 C135.1145,33.10825 133.60825,34.6145 131.75,34.6145 L131.75,34.6145 Z M131.75,46.86475 C129.89225,46.86475 128.38575,45.3585 128.38575,43.5 C128.38575,41.642 129.89225,40.13575 131.75,40.13575 C133.60825,40.13575 135.1145,41.642 135.1145,43.5 C135.1145,45.3585 133.60825,46.86475 131.75,46.86475 L131.75,46.86475 Z M118.875,34.61475 C117.01725,34.61475 115.51075,33.1085 115.51075,31.25 C115.51075,29.392 117.01725,27.88575 118.875,27.88575 C120.73325,27.88575 122.2395,29.392 122.2395,31.25 C122.2395,33.1085 120.73325,34.61475 118.875,34.61475 L118.875,34.61475 Z M118.875,46.86475 C117.01725,46.86475 115.51075,45.3585 115.51075,43.50025 C115.51075,41.64225 117.01725,40.136 118.875,40.136 C120.73325,40.136 122.2395,41.64225 122.2395,43.50025 C122.2395,45.3585 120.73325,46.86475 118.875,46.86475 L118.875,46.86475 Z M106.625,34.6145 C104.76725,34.6145 103.26075,33.10825 103.26075,31.25 C103.26075,29.392 104.76725,27.88575 106.625,27.88575 C108.48325,27.88575 109.9895,29.392 109.9895,31.25 C109.9895,33.10825 108.48325,34.6145 106.625,34.6145 L106.625,34.6145 Z M106.625,46.86475 C104.76725,46.86475 103.26075,45.3585 103.26075,43.5 C103.26075,41.642 104.76725,40.13575 106.625,40.13575 C108.48325,40.13575 109.9895,41.642 109.9895,43.5 C109.9895,45.3585 108.48325,46.86475 106.625,46.86475 L106.625,46.86475 Z M150.125,25.125 L100.5,25.125 L100.5,49.625 L150.125,49.62525 L150.125,25.125 Z M144,21.73975 C142.14225,21.73975 140.63575,20.2335 140.63575,18.37525 C140.63575,16.51725 142.14225,15.011 144,15.011 C145.85825,15.011 147.3645,16.51725 147.3645,18.37525 C147.3645,20.2335 145.85825,21.73975 144,21.73975 L144,21.73975 Z M131.75,21.73975 C129.89225,21.73975 128.38575,20.2335 128.38575,18.375 C128.38575,16.517 129.89225,15.01075 131.75,15.01075 C133.60825,15.01075 135.1145,16.517 135.1145,18.375 C135.1145,20.2335 133.60825,21.73975 131.75,21.73975 L131.75,21.73975 Z M131.75,2.76075 C133.60825,2.76075 135.1145,4.267 135.1145,6.125 C135.1145,7.98325 133.60825,9.4895 131.75,9.4895 C129.89225,9.4895 128.38575,7.98325 128.38575,6.125 C128.38575,4.267 129.89225,2.76075 131.75,2.76075 L131.75,2.76075 Z M144,2.76075 C145.85825,2.76075 147.3645,4.267 147.3645,6.125 C147.3645,7.9835 145.85825,9.48975 144,9.48975 C142.14225,9.48975 140.63575,7.9835 140.63575,6.125 C140.63575,4.267 142.14225,2.76075 144,2.76075 L144,2.76075 Z M125.625,1.42108547e-14 L125.625,24.5 L150.125,24.50025 L150.125,1.42108547e-14 L125.625,1.42108547e-14 Z M118.875,21.73975 C117.01725,21.73975 115.51075,20.2335 115.51075,18.37525 C115.51075,16.51725 117.01725,15.011 118.875,15.011 C120.73325,15.011 122.2395,16.51725 122.2395,18.37525 C122.2395,20.2335 120.73325,21.73975 118.875,21.73975 L118.875,21.73975 Z M106.625,21.73975 C104.76725,21.73975 103.26075,20.2335 103.26075,18.375 C103.26075,16.517 104.76725,15.01075 106.625,15.01075 C108.48325,15.01075 109.9895,16.517 109.9895,18.375 C109.9895,20.2335 108.48325,21.73975 106.625,21.73975 L106.625,21.73975 Z M106.625,2.76075 C108.48325,2.76075 109.9895,4.267 109.9895,6.125 C109.9895,7.98325 108.48325,9.4895 106.625,9.4895 C104.76725,9.4895 103.26075,7.98325 103.26075,6.125 C103.26075,4.267 104.76725,2.76075 106.625,2.76075 L106.625,2.76075 Z M118.875,2.76075 C120.73325,2.76075 122.2395,4.267 122.2395,6.125 C122.2395,7.9835 120.73325,9.48975 118.875,9.48975 C117.01725,9.48975 115.51075,7.9835 115.51075,6.125 C115.51075,4.267 117.01725,2.76075 118.875,2.76075 L118.875,2.76075 Z M100.5,1.42108547e-14 L100.5,24.5 L125,24.50025 L125,1.42108547e-14 L100.5,1.42108547e-14 Z M68.625,9.48975 C66.767,9.48975 65.26075,7.9835 65.26075,6.125 C65.26075,4.267 66.767,2.76075 68.625,2.76075 C70.48325,2.76075 71.9895,4.267 71.9895,6.125 C71.9895,7.9835 70.48325,9.48975 68.625,9.48975 L68.625,9.48975 Z M68.625,21.73975 C66.767,21.73975 65.26075,20.2335 65.26075,18.37525 C65.26075,16.51725 66.767,15.011 68.625,15.011 C70.48325,15.011 71.9895,16.51725 71.9895,18.37525 C71.9895,20.2335 70.48325,21.73975 68.625,21.73975 L68.625,21.73975 Z M56.375,9.4895 C54.517,9.4895 53.01075,7.98325 53.01075,6.125 C53.01075,4.267 54.517,2.76075 56.375,2.76075 C58.23325,2.76075 59.7395,4.267 59.7395,6.125 C59.7395,7.98325 58.23325,9.4895 56.375,9.4895 L56.375,9.4895 Z M56.375,21.73975 C54.517,21.73975 53.01075,20.2335 53.01075,18.375 C53.01075,16.517 54.517,15.01075 56.375,15.01075 C58.23325,15.01075 59.7395,16.517 59.7395,18.375 C59.7395,20.2335 58.23325,21.73975 56.375,21.73975 L56.375,21.73975 Z M43.5,9.48975 C41.642,9.48975 40.13575,7.9835 40.13575,6.125 C40.13575,4.267 41.642,2.76075 43.5,2.76075 C45.35825,2.76075 46.8645,4.267 46.8645,6.125 C46.8645,7.9835 45.35825,9.48975 43.5,9.48975 L43.5,9.48975 Z M43.5,21.73975 C41.642,21.73975 40.13575,20.2335 40.13575,18.37525 C40.13575,16.51725 41.642,15.011 43.5,15.011 C45.35825,15.011 46.8645,16.51725 46.8645,18.37525 C46.8645,20.2335 45.35825,21.73975 43.5,21.73975 L43.5,21.73975 Z M31.25,9.4895 C29.392,9.4895 27.88575,7.98325 27.88575,6.125 C27.88575,4.267 29.392,2.76075 31.25,2.76075 C33.10825,2.76075 34.6145,4.267 34.6145,6.125 C34.6145,7.98325 33.10825,9.4895 31.25,9.4895 L31.25,9.4895 Z M31.25,21.73975 C29.392,21.73975 27.88575,20.2335 27.88575,18.375 C27.88575,16.517 29.392,15.01075 31.25,15.01075 C33.10825,15.01075 34.6145,16.517 34.6145,18.375 C34.6145,20.2335 33.10825,21.73975 31.25,21.73975 L31.25,21.73975 Z M18.375,9.48975 C16.517,9.48975 15.01075,7.9835 15.01075,6.125 C15.01075,4.267 16.517,2.76075 18.375,2.76075 C20.23325,2.76075 21.7395,4.267 21.7395,6.125 C21.7395,7.9835 20.23325,9.48975 18.375,9.48975 L18.375,9.48975 Z M18.375,21.73975 C16.517,21.73975 15.01075,20.2335 15.01075,18.37525 C15.01075,16.51725 16.517,15.011 18.375,15.011 C20.23325,15.011 21.7395,16.51725 21.7395,18.37525 C21.7395,20.2335 20.23325,21.73975 18.375,21.73975 L18.375,21.73975 Z M6.125,9.4895 C4.267,9.4895 2.76075,7.98325 2.76075,6.125 C2.76075,4.267 4.267,2.76075 6.125,2.76075 C7.98325,2.76075 9.4895,4.267 9.4895,6.125 C9.4895,7.98325 7.98325,9.4895 6.125,9.4895 L6.125,9.4895 Z M6.125,21.73975 C4.267,21.73975 2.76075,20.2335 2.76075,18.375 C2.76075,16.517 4.267,15.01075 6.125,15.01075 C7.98325,15.01075 9.4895,16.517 9.4895,18.375 C9.4895,20.2335 7.98325,21.73975 6.125,21.73975 L6.125,21.73975 Z M74.75,1.42108547e-14 L0,1.42108547e-14 L0,24.5 L74.75,24.50025 L74.75,1.42108547e-14 Z" id="Fill-9"></path>
        </g>
    </g>
</svg>