<?xml version="1.0" encoding="UTF-8"?>
<svg width="151px" height="75px" viewBox="0 0 151 75" version="1.1" xmlns="http://www.w3.org/2000/svg" xmlns:xlink="http://www.w3.org/1999/xlink">
    <title>Fill 12</title>
    <g id="Symbols" stroke="none" stroke-width="1" fill="none" fill-rule="evenodd">
        <g id="pattern-/-bricks-/-2" fill="#FF8F63">
            <path d="M144,59.73975 C142.142,59.73975 140.63575,58.2335 140.63575,56.375 C140.63575,54.517 142.142,53.01075 144,53.01075 C145.85825,53.01075 147.3645,54.517 147.3645,56.375 C147.3645,58.2335 145.85825,59.73975 144,59.73975 L144,59.73975 Z M144,71.98975 C142.142,71.98975 140.63575,70.4835 140.63575,68.62525 C140.63575,66.76725 142.142,65.261 144,65.261 C145.85825,65.261 147.3645,66.76725 147.3645,68.62525 C147.3645,70.4835 145.85825,71.98975 144,71.98975 L144,71.98975 Z M131.75,59.7395 C129.892,59.7395 128.38575,58.23325 128.38575,56.375 C128.38575,54.517 129.892,53.01075 131.75,53.01075 C133.60825,53.01075 135.1145,54.517 135.1145,56.375 C135.1145,58.23325 133.60825,59.7395 131.75,59.7395 L131.75,59.7395 Z M131.75,71.98975 C129.892,71.98975 128.38575,70.4835 128.38575,68.625 C128.38575,66.767 129.892,65.26075 131.75,65.26075 C133.60825,65.26075 135.1145,66.767 135.1145,68.625 C135.1145,70.4835 133.60825,71.98975 131.75,71.98975 L131.75,71.98975 Z M118.875,59.73975 C117.017,59.73975 115.51075,58.2335 115.51075,56.375 C115.51075,54.517 117.017,53.01075 118.875,53.01075 C120.73325,53.01075 122.2395,54.517 122.2395,56.375 C122.2395,58.2335 120.73325,59.73975 118.875,59.73975 L118.875,59.73975 Z M118.875,71.98975 C117.017,71.98975 115.51075,70.4835 115.51075,68.62525 C115.51075,66.76725 117.017,65.261 118.875,65.261 C120.73325,65.261 122.2395,66.76725 122.2395,68.62525 C122.2395,70.4835 120.73325,71.98975 118.875,71.98975 L118.875,71.98975 Z M106.625,59.7395 C104.767,59.7395 103.26075,58.23325 103.26075,56.375 C103.26075,54.517 104.767,53.01075 106.625,53.01075 C108.48325,53.01075 109.9895,54.517 109.9895,56.375 C109.9895,58.23325 108.48325,59.7395 106.625,59.7395 L106.625,59.7395 Z M106.625,71.98975 C104.767,71.98975 103.26075,70.4835 103.26075,68.625 C103.26075,66.767 104.767,65.26075 106.625,65.26075 C108.48325,65.26075 109.9895,66.767 109.9895,68.625 C109.9895,70.4835 108.48325,71.98975 106.625,71.98975 L106.625,71.98975 Z M93.75,59.73975 C91.892,59.73975 90.38575,58.2335 90.38575,56.375 C90.38575,54.517 91.892,53.01075 93.75,53.01075 C95.60825,53.01075 97.1145,54.517 97.1145,56.375 C97.1145,58.2335 95.60825,59.73975 93.75,59.73975 L93.75,59.73975 Z M93.75,71.98975 C91.892,71.98975 90.38575,70.4835 90.38575,68.62525 C90.38575,66.76725 91.892,65.261 93.75,65.261 C95.60825,65.261 97.1145,66.76725 97.1145,68.62525 C97.1145,70.4835 95.60825,71.98975 93.75,71.98975 L93.75,71.98975 Z M81.5,59.7395 C79.642,59.7395 78.13575,58.23325 78.13575,56.375 C78.13575,54.517 79.642,53.01075 81.5,53.01075 C83.35825,53.01075 84.8645,54.517 84.8645,56.375 C84.8645,58.23325 83.35825,59.7395 81.5,59.7395 L81.5,59.7395 Z M81.5,71.98975 C79.642,71.98975 78.13575,70.4835 78.13575,68.625 C78.13575,66.767 79.642,65.26075 81.5,65.26075 C83.35825,65.26075 84.8645,66.767 84.8645,68.625 C84.8645,70.4835 83.35825,71.98975 81.5,71.98975 L81.5,71.98975 Z M150.125,50.25 L75.375,50.25 L75.375,74.75 L150.125,74.75025 L150.125,50.25 Z M6.125,40.13575 C7.983,40.13575 9.4895,41.642 9.4895,43.5 C9.4895,45.3585 7.983,46.86475 6.125,46.86475 C4.267,46.86475 2.7605,45.3585 2.7605,43.5 C2.7605,41.642 4.267,40.13575 6.125,40.13575 L6.125,40.13575 Z M6.125,27.88575 C7.983,27.88575 9.4895,29.392 9.4895,31.25 C9.4895,33.10825 7.983,34.6145 6.125,34.6145 C4.267,34.6145 2.7605,33.10825 2.7605,31.25 C2.7605,29.392 4.267,27.88575 6.125,27.88575 L6.125,27.88575 Z M18.375,40.136 C20.233,40.136 21.7395,41.64225 21.7395,43.50025 C21.7395,45.3585 20.233,46.86475 18.375,46.86475 C16.517,46.86475 15.0105,45.3585 15.0105,43.50025 C15.0105,41.64225 16.517,40.136 18.375,40.136 L18.375,40.136 Z M18.375,27.88575 C20.233,27.88575 21.7395,29.392 21.7395,31.25 C21.7395,33.1085 20.233,34.61475 18.375,34.61475 C16.517,34.61475 15.0105,33.1085 15.0105,31.25 C15.0105,29.392 16.517,27.88575 18.375,27.88575 L18.375,27.88575 Z M18.375,59.73975 C16.517,59.73975 15.0105,58.2335 15.0105,56.375 C15.0105,54.517 16.517,53.01075 18.375,53.01075 C20.233,53.01075 21.7395,54.517 21.7395,56.375 C21.7395,58.2335 20.233,59.73975 18.375,59.73975 L18.375,59.73975 Z M18.375,71.98975 C16.517,71.98975 15.0105,70.4835 15.0105,68.62525 C15.0105,66.76725 16.517,65.261 18.375,65.261 C20.233,65.261 21.7395,66.76725 21.7395,68.62525 C21.7395,70.4835 20.233,71.98975 18.375,71.98975 L18.375,71.98975 Z M6.125,59.7395 C4.267,59.7395 2.7605,58.23325 2.7605,56.375 C2.7605,54.517 4.267,53.01075 6.125,53.01075 C7.983,53.01075 9.4895,54.517 9.4895,56.375 C9.4895,58.23325 7.983,59.7395 6.125,59.7395 L6.125,59.7395 Z M6.125,71.98975 C4.267,71.98975 2.7605,70.4835 2.7605,68.625 C2.7605,66.767 4.267,65.26075 6.125,65.26075 C7.983,65.26075 9.4895,66.767 9.4895,68.625 C9.4895,70.4835 7.983,71.98975 6.125,71.98975 L6.125,71.98975 Z M0,25.125 L0,74.75025 L24.5,74.75025 L24.5,25.125 L0,25.125 Z M56.375,15.01075 C58.233,15.01075 59.7395,16.517 59.7395,18.375 C59.7395,20.2335 58.233,21.73975 56.375,21.73975 C54.517,21.73975 53.0105,20.2335 53.0105,18.375 C53.0105,16.517 54.517,15.01075 56.375,15.01075 L56.375,15.01075 Z M56.375,2.76075 C58.233,2.76075 59.7395,4.267 59.7395,6.125 C59.7395,7.98325 58.233,9.4895 56.375,9.4895 C54.517,9.4895 53.0105,7.98325 53.0105,6.125 C53.0105,4.267 54.517,2.76075 56.375,2.76075 L56.375,2.76075 Z M68.625,15.011 C70.483,15.011 71.9895,16.51725 71.9895,18.37525 C71.9895,20.2335 70.483,21.73975 68.625,21.73975 C66.767,21.73975 65.2605,20.2335 65.2605,18.37525 C65.2605,16.51725 66.767,15.011 68.625,15.011 L68.625,15.011 Z M68.625,2.76075 C70.483,2.76075 71.9895,4.267 71.9895,6.125 C71.9895,7.9835 70.483,9.48975 68.625,9.48975 C66.767,9.48975 65.2605,7.9835 65.2605,6.125 C65.2605,4.267 66.767,2.76075 68.625,2.76075 L68.625,2.76075 Z M68.625,34.61475 C66.767,34.61475 65.2605,33.1085 65.2605,31.25 C65.2605,29.392 66.767,27.88575 68.625,27.88575 C70.483,27.88575 71.9895,29.392 71.9895,31.25 C71.9895,33.1085 70.483,34.61475 68.625,34.61475 L68.625,34.61475 Z M68.625,46.86475 C66.767,46.86475 65.2605,45.3585 65.2605,43.50025 C65.2605,41.64225 66.767,40.136 68.625,40.136 C70.483,40.136 71.9895,41.64225 71.9895,43.50025 C71.9895,45.3585 70.483,46.86475 68.625,46.86475 L68.625,46.86475 Z M56.375,34.6145 C54.517,34.6145 53.0105,33.10825 53.0105,31.25 C53.0105,29.392 54.517,27.88575 56.375,27.88575 C58.233,27.88575 59.7395,29.392 59.7395,31.25 C59.7395,33.10825 58.233,34.6145 56.375,34.6145 L56.375,34.6145 Z M56.375,46.86475 C54.517,46.86475 53.0105,45.3585 53.0105,43.5 C53.0105,41.642 54.517,40.13575 56.375,40.13575 C58.233,40.13575 59.7395,41.642 59.7395,43.5 C59.7395,45.3585 58.233,46.86475 56.375,46.86475 L56.375,46.86475 Z M50.25,2.84217094e-14 L50.25,49.62525 L74.75,49.62525 L74.75,2.84217094e-14 L50.25,2.84217094e-14 Z M144,21.73975 C142.142,21.73975 140.63575,20.2335 140.63575,18.37525 C140.63575,16.51725 142.142,15.011 144,15.011 C145.85825,15.011 147.3645,16.51725 147.3645,18.37525 C147.3645,20.2335 145.85825,21.73975 144,21.73975 L144,21.73975 Z M131.75,21.73975 C129.892,21.73975 128.38575,20.2335 128.38575,18.375 C128.38575,16.517 129.892,15.01075 131.75,15.01075 C133.60825,15.01075 135.1145,16.517 135.1145,18.375 C135.1145,20.2335 133.60825,21.73975 131.75,21.73975 L131.75,21.73975 Z M131.75,2.76075 C133.60825,2.76075 135.1145,4.267 135.1145,6.125 C135.1145,7.98325 133.60825,9.4895 131.75,9.4895 C129.892,9.4895 128.38575,7.98325 128.38575,6.125 C128.38575,4.267 129.892,2.76075 131.75,2.76075 L131.75,2.76075 Z M144,2.76075 C145.85825,2.76075 147.3645,4.267 147.3645,6.125 C147.3645,7.9835 145.85825,9.48975 144,9.48975 C142.142,9.48975 140.63575,7.9835 140.63575,6.125 C140.63575,4.267 142.142,2.76075 144,2.76075 L144,2.76075 Z M125.625,2.84217094e-14 L125.625,24.5 L150.125,24.50025 L150.125,2.84217094e-14 L125.625,2.84217094e-14 Z M93.75,21.73975 C91.892,21.73975 90.38575,20.2335 90.38575,18.37525 C90.38575,16.51725 91.892,15.011 93.75,15.011 C95.60825,15.011 97.1145,16.51725 97.1145,18.37525 C97.1145,20.2335 95.60825,21.73975 93.75,21.73975 L93.75,21.73975 Z M81.5,21.73975 C79.642,21.73975 78.13575,20.2335 78.13575,18.375 C78.13575,16.517 79.642,15.01075 81.5,15.01075 C83.35825,15.01075 84.8645,16.517 84.8645,18.375 C84.8645,20.2335 83.35825,21.73975 81.5,21.73975 L81.5,21.73975 Z M81.5,2.76075 C83.35825,2.76075 84.8645,4.267 84.8645,6.125 C84.8645,7.98325 83.35825,9.4895 81.5,9.4895 C79.642,9.4895 78.13575,7.98325 78.13575,6.125 C78.13575,4.267 79.642,2.76075 81.5,2.76075 L81.5,2.76075 Z M93.75,2.76075 C95.60825,2.76075 97.1145,4.267 97.1145,6.125 C97.1145,7.9835 95.60825,9.48975 93.75,9.48975 C91.892,9.48975 90.38575,7.9835 90.38575,6.125 C90.38575,4.267 91.892,2.76075 93.75,2.76075 L93.75,2.76075 Z M75.375,2.84217094e-14 L75.375,24.5 L99.875,24.50025 L99.875,2.84217094e-14 L75.375,2.84217094e-14 Z M43.5,21.73975 C41.642,21.73975 40.1355,20.2335 40.1355,18.37525 C40.1355,16.51725 41.642,15.011 43.5,15.011 C45.358,15.011 46.8645,16.51725 46.8645,18.37525 C46.8645,20.2335 45.358,21.73975 43.5,21.73975 L43.5,21.73975 Z M31.25,21.73975 C29.392,21.73975 27.8855,20.2335 27.8855,18.375 C27.8855,16.517 29.392,15.01075 31.25,15.01075 C33.108,15.01075 34.6145,16.517 34.6145,18.375 C34.6145,20.2335 33.108,21.73975 31.25,21.73975 L31.25,21.73975 Z M31.25,2.76075 C33.108,2.76075 34.6145,4.267 34.6145,6.125 C34.6145,7.98325 33.108,9.4895 31.25,9.4895 C29.392,9.4895 27.8855,7.98325 27.8855,6.125 C27.8855,4.267 29.392,2.76075 31.25,2.76075 L31.25,2.76075 Z M43.5,2.76075 C45.358,2.76075 46.8645,4.267 46.8645,6.125 C46.8645,7.9835 45.358,9.48975 43.5,9.48975 C41.642,9.48975 40.1355,7.9835 40.1355,6.125 C40.1355,4.267 41.642,2.76075 43.5,2.76075 L43.5,2.76075 Z M25.125,2.84217094e-14 L25.125,24.5 L49.625,24.50025 L49.625,2.84217094e-14 L25.125,2.84217094e-14 Z M18.375,21.73975 C16.517,21.73975 15.0105,20.2335 15.0105,18.37525 C15.0105,16.51725 16.517,15.011 18.375,15.011 C20.233,15.011 21.7395,16.51725 21.7395,18.37525 C21.7395,20.2335 20.233,21.73975 18.375,21.73975 L18.375,21.73975 Z M6.125,21.73975 C4.267,21.73975 2.7605,20.2335 2.7605,18.375 C2.7605,16.517 4.267,15.01075 6.125,15.01075 C7.983,15.01075 9.4895,16.517 9.4895,18.375 C9.4895,20.2335 7.983,21.73975 6.125,21.73975 L6.125,21.73975 Z M6.125,2.76075 C7.983,2.76075 9.4895,4.267 9.4895,6.125 C9.4895,7.98325 7.983,9.4895 6.125,9.4895 C4.267,9.4895 2.7605,7.98325 2.7605,6.125 C2.7605,4.267 4.267,2.76075 6.125,2.76075 L6.125,2.76075 Z M18.375,2.76075 C20.233,2.76075 21.7395,4.267 21.7395,6.125 C21.7395,7.9835 20.233,9.48975 18.375,9.48975 C16.517,9.48975 15.0105,7.9835 15.0105,6.125 C15.0105,4.267 16.517,2.76075 18.375,2.76075 L18.375,2.76075 Z M0,2.84217094e-14 L0,24.5 L24.5,24.50025 L24.5,2.84217094e-14 L0,2.84217094e-14 Z" id="Fill-12"></path>
        </g>
    </g>
</svg>