<?xml version="1.0" encoding="UTF-8"?>
<svg width="125px" height="250px" viewBox="0 0 125 250" version="1.1" xmlns="http://www.w3.org/2000/svg" xmlns:xlink="http://www.w3.org/1999/xlink">
    <title>2</title>
    <g id="Page-1" stroke="none" stroke-width="1" fill="none" fill-rule="evenodd">
        <g id="2" transform="translate(62.500000, 124.837748) rotate(-90.000000) translate(-62.500000, -124.837748) translate(-62.000000, 63.000000)" fill="#FF8F63" fill-rule="nonzero">
            <path d="M237.456954,98.5112434 C234.393099,98.5112434 231.909283,96.0274272 231.909283,92.9627483 C231.909283,89.898894 234.393099,87.4150778 237.456954,87.4150778 C240.52122,87.4150778 243.005036,89.898894 243.005036,92.9627483 C243.005036,96.0274272 240.52122,98.5112434 237.456954,98.5112434 L237.456954,98.5112434 Z M237.456954,118.711575 C234.393099,118.711575 231.909283,116.227758 231.909283,113.163492 C231.909283,110.099637 234.393099,107.615821 237.456954,107.615821 C240.52122,107.615821 243.005036,110.099637 243.005036,113.163492 C243.005036,116.227758 240.52122,118.711575 237.456954,118.711575 L237.456954,118.711575 Z M217.256623,98.5108311 C214.192768,98.5108311 211.708952,96.0270149 211.708952,92.9627483 C211.708952,89.898894 214.192768,87.4150778 217.256623,87.4150778 C220.320889,87.4150778 222.804705,89.898894 222.804705,92.9627483 C222.804705,96.0270149 220.320889,98.5108311 217.256623,98.5108311 L217.256623,98.5108311 Z M217.256623,118.711575 C214.192768,118.711575 211.708952,116.227758 211.708952,113.163079 C211.708952,110.099225 214.192768,107.615409 217.256623,107.615409 C220.320889,107.615409 222.804705,110.099225 222.804705,113.163079 C222.804705,116.227758 220.320889,118.711575 217.256623,118.711575 L217.256623,118.711575 Z M196.025662,98.5112434 C192.961808,98.5112434 190.477992,96.0274272 190.477992,92.9627483 C190.477992,89.898894 192.961808,87.4150778 196.025662,87.4150778 C199.089929,87.4150778 201.573745,89.898894 201.573745,92.9627483 C201.573745,96.0274272 199.089929,98.5112434 196.025662,98.5112434 L196.025662,98.5112434 Z M196.025662,118.711575 C192.961808,118.711575 190.477992,116.227758 190.477992,113.163492 C190.477992,110.099637 192.961808,107.615821 196.025662,107.615821 C199.089929,107.615821 201.573745,110.099637 201.573745,113.163492 C201.573745,116.227758 199.089929,118.711575 196.025662,118.711575 L196.025662,118.711575 Z M175.825331,98.5108311 C172.761477,98.5108311 170.277661,96.0270149 170.277661,92.9627483 C170.277661,89.898894 172.761477,87.4150778 175.825331,87.4150778 C178.889598,87.4150778 181.373414,89.898894 181.373414,92.9627483 C181.373414,96.0270149 178.889598,98.5108311 175.825331,98.5108311 L175.825331,98.5108311 Z M175.825331,118.711575 C172.761477,118.711575 170.277661,116.227758 170.277661,113.163079 C170.277661,110.099225 172.761477,107.615409 175.825331,107.615409 C178.889598,107.615409 181.373414,110.099225 181.373414,113.163079 C181.373414,116.227758 178.889598,118.711575 175.825331,118.711575 L175.825331,118.711575 Z M154.594371,98.5112434 C151.530517,98.5112434 149.0467,96.0274272 149.0467,92.9627483 C149.0467,89.898894 151.530517,87.4150778 154.594371,87.4150778 C157.658637,87.4150778 160.142454,89.898894 160.142454,92.9627483 C160.142454,96.0274272 157.658637,98.5112434 154.594371,98.5112434 L154.594371,98.5112434 Z M154.594371,118.711575 C151.530517,118.711575 149.0467,116.227758 149.0467,113.163492 C149.0467,110.099637 151.530517,107.615821 154.594371,107.615821 C157.658637,107.615821 160.142454,110.099637 160.142454,113.163492 C160.142454,116.227758 157.658637,118.711575 154.594371,118.711575 L154.594371,118.711575 Z M134.39404,98.5108311 C131.330185,98.5108311 128.846369,96.0270149 128.846369,92.9627483 C128.846369,89.898894 131.330185,87.4150778 134.39404,87.4150778 C137.458306,87.4150778 139.942123,89.898894 139.942123,92.9627483 C139.942123,96.0270149 137.458306,98.5108311 134.39404,98.5108311 L134.39404,98.5108311 Z M134.39404,118.711575 C131.330185,118.711575 128.846369,116.227758 128.846369,113.163079 C128.846369,110.099225 131.330185,107.615409 134.39404,107.615409 C137.458306,107.615409 139.942123,110.099225 139.942123,113.163079 C139.942123,116.227758 137.458306,118.711575 134.39404,118.711575 L134.39404,118.711575 Z M247.557119,82.8625828 L124.293874,82.8625828 L124.293874,123.263245 L247.557119,123.263657 L247.557119,82.8625828 Z M10.1001656,66.1841175 C13.1640199,66.1841175 15.6482483,68.6679338 15.6482483,71.7317881 C15.6482483,74.7964669 13.1640199,77.2802831 10.1001656,77.2802831 C7.03631126,77.2802831 4.55208278,74.7964669 4.55208278,71.7317881 C4.55208278,68.6679338 7.03631126,66.1841175 10.1001656,66.1841175 L10.1001656,66.1841175 Z M10.1001656,45.9837864 C13.1640199,45.9837864 15.6482483,48.4676026 15.6482483,51.531457 C15.6482483,54.5957235 13.1640199,57.0795397 10.1001656,57.0795397 C7.03631126,57.0795397 4.55208278,54.5957235 4.55208278,51.531457 C4.55208278,48.4676026 7.03631126,45.9837864 10.1001656,45.9837864 L10.1001656,45.9837864 Z M30.3004967,66.1845298 C33.364351,66.1845298 35.8485795,68.668346 35.8485795,71.7322003 C35.8485795,74.7964669 33.364351,77.2802831 30.3004967,77.2802831 C27.2366424,77.2802831 24.7524139,74.7964669 24.7524139,71.7322003 C24.7524139,68.668346 27.2366424,66.1845298 30.3004967,66.1845298 L30.3004967,66.1845298 Z M30.3004967,45.9837864 C33.364351,45.9837864 35.8485795,48.4676026 35.8485795,51.531457 C35.8485795,54.5961358 33.364351,57.079952 30.3004967,57.079952 C27.2366424,57.079952 24.7524139,54.5961358 24.7524139,51.531457 C24.7524139,48.4676026 27.2366424,45.9837864 30.3004967,45.9837864 L30.3004967,45.9837864 Z M30.3004967,98.5112434 C27.2366424,98.5112434 24.7524139,96.0274272 24.7524139,92.9627483 C24.7524139,89.898894 27.2366424,87.4150778 30.3004967,87.4150778 C33.364351,87.4150778 35.8485795,89.898894 35.8485795,92.9627483 C35.8485795,96.0274272 33.364351,98.5112434 30.3004967,98.5112434 L30.3004967,98.5112434 Z M30.3004967,118.711575 C27.2366424,118.711575 24.7524139,116.227758 24.7524139,113.163492 C24.7524139,110.099637 27.2366424,107.615821 30.3004967,107.615821 C33.364351,107.615821 35.8485795,110.099637 35.8485795,113.163492 C35.8485795,116.227758 33.364351,118.711575 30.3004967,118.711575 L30.3004967,118.711575 Z M10.1001656,98.5108311 C7.03631126,98.5108311 4.55208278,96.0270149 4.55208278,92.9627483 C4.55208278,89.898894 7.03631126,87.4150778 10.1001656,87.4150778 C13.1640199,87.4150778 15.6482483,89.898894 15.6482483,92.9627483 C15.6482483,96.0270149 13.1640199,98.5108311 10.1001656,98.5108311 L10.1001656,98.5108311 Z M10.1001656,118.711575 C7.03631126,118.711575 4.55208278,116.227758 4.55208278,113.163079 C4.55208278,110.099225 7.03631126,107.615409 10.1001656,107.615409 C13.1640199,107.615409 15.6482483,110.099225 15.6482483,113.163079 C15.6482483,116.227758 13.1640199,118.711575 10.1001656,118.711575 L10.1001656,118.711575 Z M0,41.4312914 L0,123.263657 L40.4006623,123.263657 L40.4006623,41.4312914 L0,41.4312914 Z M92.9627483,24.7528262 C96.0266026,24.7528262 98.5108311,27.2366424 98.5108311,30.3004967 C98.5108311,33.3651755 96.0266026,35.8489917 92.9627483,35.8489917 C89.898894,35.8489917 87.4146656,33.3651755 87.4146656,30.3004967 C87.4146656,27.2366424 89.898894,24.7528262 92.9627483,24.7528262 L92.9627483,24.7528262 Z M92.9627483,4.55249503 C96.0266026,4.55249503 98.5108311,7.03631126 98.5108311,10.1001656 C98.5108311,13.1644321 96.0266026,15.6482483 92.9627483,15.6482483 C89.898894,15.6482483 87.4146656,13.1644321 87.4146656,10.1001656 C87.4146656,7.03631126 89.898894,4.55249503 92.9627483,4.55249503 L92.9627483,4.55249503 Z M113.163079,24.7532384 C116.226934,24.7532384 118.711162,27.2370546 118.711162,30.3009089 C118.711162,33.3651755 116.226934,35.8489917 113.163079,35.8489917 C110.099225,35.8489917 107.614997,33.3651755 107.614997,30.3009089 C107.614997,27.2370546 110.099225,24.7532384 113.163079,24.7532384 L113.163079,24.7532384 Z M113.163079,4.55249503 C116.226934,4.55249503 118.711162,7.03631126 118.711162,10.1001656 C118.711162,13.1648444 116.226934,15.6486606 113.163079,15.6486606 C110.099225,15.6486606 107.614997,13.1648444 107.614997,10.1001656 C107.614997,7.03631126 110.099225,4.55249503 113.163079,4.55249503 L113.163079,4.55249503 Z M113.163079,57.079952 C110.099225,57.079952 107.614997,54.5961358 107.614997,51.531457 C107.614997,48.4676026 110.099225,45.9837864 113.163079,45.9837864 C116.226934,45.9837864 118.711162,48.4676026 118.711162,51.531457 C118.711162,54.5961358 116.226934,57.079952 113.163079,57.079952 L113.163079,57.079952 Z M113.163079,77.2802831 C110.099225,77.2802831 107.614997,74.7964669 107.614997,71.7322003 C107.614997,68.668346 110.099225,66.1845298 113.163079,66.1845298 C116.226934,66.1845298 118.711162,68.668346 118.711162,71.7322003 C118.711162,74.7964669 116.226934,77.2802831 113.163079,77.2802831 L113.163079,77.2802831 Z M92.9627483,57.0795397 C89.898894,57.0795397 87.4146656,54.5957235 87.4146656,51.531457 C87.4146656,48.4676026 89.898894,45.9837864 92.9627483,45.9837864 C96.0266026,45.9837864 98.5108311,48.4676026 98.5108311,51.531457 C98.5108311,54.5957235 96.0266026,57.0795397 92.9627483,57.0795397 L92.9627483,57.0795397 Z M92.9627483,77.2802831 C89.898894,77.2802831 87.4146656,74.7964669 87.4146656,71.7317881 C87.4146656,68.6679338 89.898894,66.1841175 92.9627483,66.1841175 C96.0266026,66.1841175 98.5108311,68.6679338 98.5108311,71.7317881 C98.5108311,74.7964669 96.0266026,77.2802831 92.9627483,77.2802831 L92.9627483,77.2802831 Z M82.8625828,4.68675871e-14 L82.8625828,81.8323659 L123.263245,81.8323659 L123.263245,4.68675871e-14 L82.8625828,4.68675871e-14 Z M237.456954,35.8489917 C234.393099,35.8489917 231.909283,33.3651755 231.909283,30.3009089 C231.909283,27.2370546 234.393099,24.7532384 237.456954,24.7532384 C240.52122,24.7532384 243.005036,27.2370546 243.005036,30.3009089 C243.005036,33.3651755 240.52122,35.8489917 237.456954,35.8489917 L237.456954,35.8489917 Z M217.256623,35.8489917 C214.192768,35.8489917 211.708952,33.3651755 211.708952,30.3004967 C211.708952,27.2366424 214.192768,24.7528262 217.256623,24.7528262 C220.320889,24.7528262 222.804705,27.2366424 222.804705,30.3004967 C222.804705,33.3651755 220.320889,35.8489917 217.256623,35.8489917 L217.256623,35.8489917 Z M217.256623,4.55249503 C220.320889,4.55249503 222.804705,7.03631126 222.804705,10.1001656 C222.804705,13.1644321 220.320889,15.6482483 217.256623,15.6482483 C214.192768,15.6482483 211.708952,13.1644321 211.708952,10.1001656 C211.708952,7.03631126 214.192768,4.55249503 217.256623,4.55249503 L217.256623,4.55249503 Z M237.456954,4.55249503 C240.52122,4.55249503 243.005036,7.03631126 243.005036,10.1001656 C243.005036,13.1648444 240.52122,15.6486606 237.456954,15.6486606 C234.393099,15.6486606 231.909283,13.1648444 231.909283,10.1001656 C231.909283,7.03631126 234.393099,4.55249503 237.456954,4.55249503 L237.456954,4.55249503 Z M207.156457,4.68675871e-14 L207.156457,40.4006623 L247.557119,40.4010745 L247.557119,4.68675871e-14 L207.156457,4.68675871e-14 Z M154.594371,35.8489917 C151.530517,35.8489917 149.0467,33.3651755 149.0467,30.3009089 C149.0467,27.2370546 151.530517,24.7532384 154.594371,24.7532384 C157.658637,24.7532384 160.142454,27.2370546 160.142454,30.3009089 C160.142454,33.3651755 157.658637,35.8489917 154.594371,35.8489917 L154.594371,35.8489917 Z M134.39404,35.8489917 C131.330185,35.8489917 128.846369,33.3651755 128.846369,30.3004967 C128.846369,27.2366424 131.330185,24.7528262 134.39404,24.7528262 C137.458306,24.7528262 139.942123,27.2366424 139.942123,30.3004967 C139.942123,33.3651755 137.458306,35.8489917 134.39404,35.8489917 L134.39404,35.8489917 Z M134.39404,4.55249503 C137.458306,4.55249503 139.942123,7.03631126 139.942123,10.1001656 C139.942123,13.1644321 137.458306,15.6482483 134.39404,15.6482483 C131.330185,15.6482483 128.846369,13.1644321 128.846369,10.1001656 C128.846369,7.03631126 131.330185,4.55249503 134.39404,4.55249503 L134.39404,4.55249503 Z M154.594371,4.55249503 C157.658637,4.55249503 160.142454,7.03631126 160.142454,10.1001656 C160.142454,13.1648444 157.658637,15.6486606 154.594371,15.6486606 C151.530517,15.6486606 149.0467,13.1648444 149.0467,10.1001656 C149.0467,7.03631126 151.530517,4.55249503 154.594371,4.55249503 L154.594371,4.55249503 Z M124.293874,4.68675871e-14 L124.293874,40.4006623 L164.694536,40.4010745 L164.694536,4.68675871e-14 L124.293874,4.68675871e-14 Z M71.7317881,35.8489917 C68.6679338,35.8489917 66.1837053,33.3651755 66.1837053,30.3009089 C66.1837053,27.2370546 68.6679338,24.7532384 71.7317881,24.7532384 C74.7956424,24.7532384 77.2798709,27.2370546 77.2798709,30.3009089 C77.2798709,33.3651755 74.7956424,35.8489917 71.7317881,35.8489917 L71.7317881,35.8489917 Z M51.531457,35.8489917 C48.4676026,35.8489917 45.9833742,33.3651755 45.9833742,30.3004967 C45.9833742,27.2366424 48.4676026,24.7528262 51.531457,24.7528262 C54.5953113,24.7528262 57.0795397,27.2366424 57.0795397,30.3004967 C57.0795397,33.3651755 54.5953113,35.8489917 51.531457,35.8489917 L51.531457,35.8489917 Z M51.531457,4.55249503 C54.5953113,4.55249503 57.0795397,7.03631126 57.0795397,10.1001656 C57.0795397,13.1644321 54.5953113,15.6482483 51.531457,15.6482483 C48.4676026,15.6482483 45.9833742,13.1644321 45.9833742,10.1001656 C45.9833742,7.03631126 48.4676026,4.55249503 51.531457,4.55249503 L51.531457,4.55249503 Z M71.7317881,4.55249503 C74.7956424,4.55249503 77.2798709,7.03631126 77.2798709,10.1001656 C77.2798709,13.1648444 74.7956424,15.6486606 71.7317881,15.6486606 C68.6679338,15.6486606 66.1837053,13.1648444 66.1837053,10.1001656 C66.1837053,7.03631126 68.6679338,4.55249503 71.7317881,4.55249503 L71.7317881,4.55249503 Z M41.4312914,4.68675871e-14 L41.4312914,40.4006623 L81.8319536,40.4010745 L81.8319536,4.68675871e-14 L41.4312914,4.68675871e-14 Z M30.3004967,35.8489917 C27.2366424,35.8489917 24.7524139,33.3651755 24.7524139,30.3009089 C24.7524139,27.2370546 27.2366424,24.7532384 30.3004967,24.7532384 C33.364351,24.7532384 35.8485795,27.2370546 35.8485795,30.3009089 C35.8485795,33.3651755 33.364351,35.8489917 30.3004967,35.8489917 L30.3004967,35.8489917 Z M10.1001656,35.8489917 C7.03631126,35.8489917 4.55208278,33.3651755 4.55208278,30.3004967 C4.55208278,27.2366424 7.03631126,24.7528262 10.1001656,24.7528262 C13.1640199,24.7528262 15.6482483,27.2366424 15.6482483,30.3004967 C15.6482483,33.3651755 13.1640199,35.8489917 10.1001656,35.8489917 L10.1001656,35.8489917 Z M10.1001656,4.55249503 C13.1640199,4.55249503 15.6482483,7.03631126 15.6482483,10.1001656 C15.6482483,13.1644321 13.1640199,15.6482483 10.1001656,15.6482483 C7.03631126,15.6482483 4.55208278,13.1644321 4.55208278,10.1001656 C4.55208278,7.03631126 7.03631126,4.55249503 10.1001656,4.55249503 L10.1001656,4.55249503 Z M30.3004967,4.55249503 C33.364351,4.55249503 35.8485795,7.03631126 35.8485795,10.1001656 C35.8485795,13.1648444 33.364351,15.6486606 30.3004967,15.6486606 C27.2366424,15.6486606 24.7524139,13.1648444 24.7524139,10.1001656 C24.7524139,7.03631126 27.2366424,4.55249503 30.3004967,4.55249503 L30.3004967,4.55249503 Z M0,4.68675871e-14 L0,40.4006623 L40.4006623,40.4010745 L40.4006623,4.68675871e-14 L0,4.68675871e-14 Z" id="Fill-12"></path>
        </g>
    </g>
</svg>