<?xml version="1.0" encoding="UTF-8"?>
<svg width="151px" height="75px" viewBox="0 0 151 75" version="1.1" xmlns="http://www.w3.org/2000/svg" xmlns:xlink="http://www.w3.org/1999/xlink">
    <title>Combined Shape</title>
    <g id="Symbols" stroke="none" stroke-width="1" fill="none" fill-rule="evenodd">
        <g id="pattern-/-bricks-/-4" fill="#6475F5">
            <path d="M99.875,50.25 L99.875,74.75025 L75.375,74.75 L75.375,50.25 L99.875,50.25 Z M49.62475,50.25 L49.62475,74.75025 L25.125,74.75 L25.125,50.25 L49.62475,50.25 Z M93.75,65.261 C91.892,65.261 90.38575,66.76725 90.38575,68.62525 C90.38575,70.4835 91.892,71.98975 93.75,71.98975 C95.60825,71.98975 97.1145,70.4835 97.1145,68.62525 C97.1145,66.76725 95.60825,65.261 93.75,65.261 Z M81.5,65.26075 C79.642,65.26075 78.13575,66.767 78.13575,68.625 C78.13575,70.4835 79.642,71.98975 81.5,71.98975 C83.35825,71.98975 84.8645,70.4835 84.8645,68.625 C84.8645,66.767 83.35825,65.26075 81.5,65.26075 Z M43.49975,65.261 C41.642,65.261 40.1355,66.76725 40.1355,68.62525 C40.1355,70.4835 41.642,71.98975 43.49975,71.98975 C45.358,71.98975 46.8645,70.4835 46.8645,68.62525 C46.8645,66.76725 45.358,65.261 43.49975,65.261 Z M31.25,65.26075 C29.392,65.26075 27.8855,66.767 27.8855,68.625 C27.8855,70.4835 29.392,71.98975 31.25,71.98975 C33.108,71.98975 34.6145,70.4835 34.6145,68.625 C34.6145,66.767 33.108,65.26075 31.25,65.26075 Z M81.5,53.01075 C79.642,53.01075 78.13575,54.517 78.13575,56.375 C78.13575,58.23325 79.642,59.7395 81.5,59.7395 C83.35825,59.7395 84.8645,58.23325 84.8645,56.375 C84.8645,54.517 83.35825,53.01075 81.5,53.01075 Z M93.75,53.01075 C91.892,53.01075 90.38575,54.517 90.38575,56.375 C90.38575,58.2335 91.892,59.73975 93.75,59.73975 C95.60825,59.73975 97.1145,58.2335 97.1145,56.375 C97.1145,54.517 95.60825,53.01075 93.75,53.01075 Z M31.25,53.01075 C29.392,53.01075 27.8855,54.517 27.8855,56.375 C27.8855,58.23325 29.392,59.7395 31.25,59.7395 C33.108,59.7395 34.6145,58.23325 34.6145,56.375 C34.6145,54.517 33.108,53.01075 31.25,53.01075 Z M43.49975,53.01075 C41.642,53.01075 40.1355,54.517 40.1355,56.375 C40.1355,58.2335 41.642,59.73975 43.49975,59.73975 C45.358,59.73975 46.8645,58.2335 46.8645,56.375 C46.8645,54.517 45.358,53.01075 43.49975,53.01075 Z M74.75,5.32907052e-14 L74.75,49.62525 L50.24975,49.62525 L50.24975,5.32907052e-14 L74.75,5.32907052e-14 Z M24.5,25.125 L24.5,49.62525 L0,49.625 L0,25.125 L24.5,25.125 Z M68.625,40.136 C66.767,40.136 65.2605,41.64225 65.2605,43.50025 C65.2605,45.3585 66.767,46.86475 68.625,46.86475 C70.483,46.86475 71.9895,45.3585 71.9895,43.50025 C71.9895,41.64225 70.483,40.136 68.625,40.136 Z M56.37475,40.13575 C54.517,40.13575 53.0105,41.642 53.0105,43.5 C53.0105,45.3585 54.517,46.86475 56.37475,46.86475 C58.233,46.86475 59.7395,45.3585 59.7395,43.5 C59.7395,41.642 58.233,40.13575 56.37475,40.13575 Z M18.375,40.136 C16.517,40.136 15.0105,41.64225 15.0105,43.50025 C15.0105,45.3585 16.517,46.86475 18.375,46.86475 C20.233,46.86475 21.7395,45.3585 21.7395,43.50025 C21.7395,41.64225 20.233,40.136 18.375,40.136 Z M6.125,40.13575 C4.267,40.13575 2.7605,41.642 2.7605,43.5 C2.7605,45.3585 4.267,46.86475 6.125,46.86475 C7.983,46.86475 9.4895,45.3585 9.4895,43.5 C9.4895,41.642 7.983,40.13575 6.125,40.13575 Z M68.625,27.88575 C66.767,27.88575 65.2605,29.392 65.2605,31.25 C65.2605,33.1085 66.767,34.61475 68.625,34.61475 C70.483,34.61475 71.9895,33.1085 71.9895,31.25 C71.9895,29.392 70.483,27.88575 68.625,27.88575 Z M56.37475,27.88575 C54.517,27.88575 53.0105,29.392 53.0105,31.25 C53.0105,33.10825 54.517,34.6145 56.37475,34.6145 C58.233,34.6145 59.7395,33.10825 59.7395,31.25 C59.7395,29.392 58.233,27.88575 56.37475,27.88575 Z M6.125,27.88575 C4.267,27.88575 2.7605,29.392 2.7605,31.25 C2.7605,33.10825 4.267,34.6145 6.125,34.6145 C7.983,34.6145 9.4895,33.10825 9.4895,31.25 C9.4895,29.392 7.983,27.88575 6.125,27.88575 Z M18.375,27.88575 C16.517,27.88575 15.0105,29.392 15.0105,31.25 C15.0105,33.1085 16.517,34.61475 18.375,34.61475 C20.233,34.61475 21.7395,33.1085 21.7395,31.25 C21.7395,29.392 20.233,27.88575 18.375,27.88575 Z M150.125,5.68434189e-14 L150.125,24.50025 L100.5,24.5 L100.5,5.68434189e-14 L150.125,5.68434189e-14 Z M56.37475,15.01075 C54.517,15.01075 53.0105,16.517 53.0105,18.375 C53.0105,20.2335 54.517,21.73975 56.37475,21.73975 C58.233,21.73975 59.7395,20.2335 59.7395,18.375 C59.7395,16.517 58.233,15.01075 56.37475,15.01075 Z M68.625,15.011 C66.767,15.011 65.2605,16.51725 65.2605,18.37525 C65.2605,20.2335 66.767,21.73975 68.625,21.73975 C70.483,21.73975 71.9895,20.2335 71.9895,18.37525 C71.9895,16.51725 70.483,15.011 68.625,15.011 Z M144,15.011 C142.142,15.011 140.63575,16.51725 140.63575,18.37525 C140.63575,20.2335 142.142,21.73975 144,21.73975 C145.85825,21.73975 147.3645,20.2335 147.3645,18.37525 C147.3645,16.51725 145.85825,15.011 144,15.011 Z M131.75,15.01075 C129.892,15.01075 128.38575,16.517 128.38575,18.375 C128.38575,20.2335 129.892,21.73975 131.75,21.73975 C133.60825,21.73975 135.1145,20.2335 135.1145,18.375 C135.1145,16.517 133.60825,15.01075 131.75,15.01075 Z M118.875,15.011 C117.017,15.011 115.51075,16.51725 115.51075,18.37525 C115.51075,20.2335 117.017,21.73975 118.875,21.73975 C120.73325,21.73975 122.2395,20.2335 122.2395,18.37525 C122.2395,16.51725 120.73325,15.011 118.875,15.011 Z M106.625,15.01075 C104.767,15.01075 103.26075,16.517 103.26075,18.375 C103.26075,20.2335 104.767,21.73975 106.625,21.73975 C108.48325,21.73975 109.9895,20.2335 109.9895,18.375 C109.9895,16.517 108.48325,15.01075 106.625,15.01075 Z M56.37475,2.76075 C54.517,2.76075 53.0105,4.267 53.0105,6.125 C53.0105,7.98325 54.517,9.4895 56.37475,9.4895 C58.233,9.4895 59.7395,7.98325 59.7395,6.125 C59.7395,4.267 58.233,2.76075 56.37475,2.76075 Z M68.625,2.76075 C66.767,2.76075 65.2605,4.267 65.2605,6.125 C65.2605,7.9835 66.767,9.48975 68.625,9.48975 C70.483,9.48975 71.9895,7.9835 71.9895,6.125 C71.9895,4.267 70.483,2.76075 68.625,2.76075 Z M144,2.76075 C142.142,2.76075 140.63575,4.267 140.63575,6.125 C140.63575,7.9835 142.142,9.48975 144,9.48975 C145.85825,9.48975 147.3645,7.9835 147.3645,6.125 C147.3645,4.267 145.85825,2.76075 144,2.76075 Z M131.75,2.76075 C129.892,2.76075 128.38575,4.267 128.38575,6.125 C128.38575,7.98325 129.892,9.4895 131.75,9.4895 C133.60825,9.4895 135.1145,7.98325 135.1145,6.125 C135.1145,4.267 133.60825,2.76075 131.75,2.76075 Z M118.875,2.76075 C117.017,2.76075 115.51075,4.267 115.51075,6.125 C115.51075,7.9835 117.017,9.48975 118.875,9.48975 C120.73325,9.48975 122.2395,7.9835 122.2395,6.125 C122.2395,4.267 120.73325,2.76075 118.875,2.76075 Z M106.625,2.76075 C104.767,2.76075 103.26075,4.267 103.26075,6.125 C103.26075,7.98325 104.767,9.4895 106.625,9.4895 C108.48325,9.4895 109.9895,7.98325 109.9895,6.125 C109.9895,4.267 108.48325,2.76075 106.625,2.76075 Z" id="Combined-Shape"></path>
        </g>
    </g>
</svg>