<?xml version="1.0" encoding="UTF-8"?>
<svg width="75px" height="125px" viewBox="0 0 75 125" version="1.1" xmlns="http://www.w3.org/2000/svg" xmlns:xlink="http://www.w3.org/1999/xlink">
    <title>Combined Shape</title>
    <g id="Symbols" stroke="none" stroke-width="1" fill="none" fill-rule="evenodd">
        <g id="pattern-/-bricks-/-5" fill="#347659">
            <path d="M74.75,50.25 L74.75,125.00025 L50.25,125.00025 L50.25,50.25 L74.75,50.25 Z M24.5,100.5 L24.5,125.00025 L0,125.00025 L0,100.5 L24.5,100.5 Z M6.125,115.51075 C4.267,115.51075 2.76075,117.01725 2.76075,118.87525 C2.76075,120.7335 4.267,122.24 6.125,122.24 C7.98325,122.24 9.4895,120.7335 9.4895,118.87525 C9.4895,117.01725 7.98325,115.51075 6.125,115.51075 Z M68.625,115.51075 C66.767,115.51075 65.26075,117.01725 65.26075,118.87525 C65.26075,120.73325 66.767,122.23975 68.625,122.23975 C70.48325,122.23975 71.9895,120.73325 71.9895,118.87525 C71.9895,117.01725 70.48325,115.51075 68.625,115.51075 Z M56.375,115.51075 C54.517,115.51075 53.01075,117.017 53.01075,118.875 C53.01075,120.73325 54.517,122.23975 56.375,122.23975 C58.23325,122.23975 59.7395,120.73325 59.7395,118.875 C59.7395,117.017 58.23325,115.51075 56.375,115.51075 Z M18.375,115.511 C16.517,115.511 15.01075,117.0175 15.01075,118.87525 C15.01075,120.7335 16.517,122.24 18.375,122.24 C20.23325,122.24 21.7395,120.7335 21.7395,118.87525 C21.7395,117.0175 20.23325,115.511 18.375,115.511 Z M68.625,103.26075 C66.767,103.26075 65.26075,104.767 65.26075,106.625 C65.26075,108.4835 66.767,109.98975 68.625,109.98975 C70.48325,109.98975 71.9895,108.4835 71.9895,106.625 C71.9895,104.767 70.48325,103.26075 68.625,103.26075 Z M56.375,103.26075 C54.517,103.26075 53.01075,104.767 53.01075,106.625 C53.01075,108.48325 54.517,109.9895 56.375,109.9895 C58.23325,109.9895 59.7395,108.48325 59.7395,106.625 C59.7395,104.767 58.23325,103.26075 56.375,103.26075 Z M6.125,103.26075 C4.267,103.26075 2.76075,104.767 2.76075,106.625 C2.76075,108.48325 4.267,109.9895 6.125,109.9895 C7.98325,109.9895 9.4895,108.48325 9.4895,106.625 C9.4895,104.767 7.98325,103.26075 6.125,103.26075 Z M18.375,103.26075 C16.517,103.26075 15.01075,104.767 15.01075,106.625 C15.01075,108.4835 16.517,109.98975 18.375,109.98975 C20.23325,109.98975 21.7395,108.4835 21.7395,106.625 C21.7395,104.767 20.23325,103.26075 18.375,103.26075 Z M56.375,90.38575 C54.517,90.38575 53.01075,91.892 53.01075,93.75 C53.01075,95.6085 54.517,97.11475 56.375,97.11475 C58.23325,97.11475 59.7395,95.6085 59.7395,93.75 C59.7395,91.892 58.23325,90.38575 56.375,90.38575 Z M68.625,90.386 C66.767,90.386 65.26075,91.89225 65.26075,93.75025 C65.26075,95.6085 66.767,97.11475 68.625,97.11475 C70.48325,97.11475 71.9895,95.6085 71.9895,93.75025 C71.9895,91.89225 70.48325,90.386 68.625,90.386 Z M56.375,78.13575 C54.517,78.13575 53.01075,79.642 53.01075,81.5 C53.01075,83.35825 54.517,84.8645 56.375,84.8645 C58.23325,84.8645 59.7395,83.35825 59.7395,81.5 C59.7395,79.642 58.23325,78.13575 56.375,78.13575 Z M68.625,78.13575 C66.767,78.13575 65.26075,79.642 65.26075,81.5 C65.26075,83.3585 66.767,84.86475 68.625,84.86475 C70.48325,84.86475 71.9895,83.3585 71.9895,81.5 C71.9895,79.642 70.48325,78.13575 68.625,78.13575 Z M24.5,50.25 L24.5,74.75025 L0,74.75 L0,50.25 L24.5,50.25 Z M56.375,65.26075 C54.517,65.26075 53.01075,66.767 53.01075,68.625 C53.01075,70.4835 54.517,71.98975 56.375,71.98975 C58.23325,71.98975 59.7395,70.4835 59.7395,68.625 C59.7395,66.767 58.23325,65.26075 56.375,65.26075 Z M68.625,65.261 C66.767,65.261 65.26075,66.76725 65.26075,68.62525 C65.26075,70.4835 66.767,71.98975 68.625,71.98975 C70.48325,71.98975 71.9895,70.4835 71.9895,68.62525 C71.9895,66.76725 70.48325,65.261 68.625,65.261 Z M18.375,65.261 C16.517,65.261 15.01075,66.76725 15.01075,68.62525 C15.01075,70.4835 16.517,71.98975 18.375,71.98975 C20.23325,71.98975 21.7395,70.4835 21.7395,68.62525 C21.7395,66.76725 20.23325,65.261 18.375,65.261 Z M6.125,65.26075 C4.267,65.26075 2.76075,66.767 2.76075,68.625 C2.76075,70.4835 4.267,71.98975 6.125,71.98975 C7.98325,71.98975 9.4895,70.4835 9.4895,68.625 C9.4895,66.767 7.98325,65.26075 6.125,65.26075 Z M56.375,53.01075 C54.517,53.01075 53.01075,54.517 53.01075,56.375 C53.01075,58.23325 54.517,59.7395 56.375,59.7395 C58.23325,59.7395 59.7395,58.23325 59.7395,56.375 C59.7395,54.517 58.23325,53.01075 56.375,53.01075 Z M68.625,53.01075 C66.767,53.01075 65.26075,54.517 65.26075,56.375 C65.26075,58.2335 66.767,59.73975 68.625,59.73975 C70.48325,59.73975 71.9895,58.2335 71.9895,56.375 C71.9895,54.517 70.48325,53.01075 68.625,53.01075 Z M6.125,53.01075 C4.267,53.01075 2.76075,54.517 2.76075,56.375 C2.76075,58.23325 4.267,59.7395 6.125,59.7395 C7.98325,59.7395 9.4895,58.23325 9.4895,56.375 C9.4895,54.517 7.98325,53.01075 6.125,53.01075 Z M18.375,53.01075 C16.517,53.01075 15.01075,54.517 15.01075,56.375 C15.01075,58.2335 16.517,59.73975 18.375,59.73975 C20.23325,59.73975 21.7395,58.2335 21.7395,56.375 C21.7395,54.517 20.23325,53.01075 18.375,53.01075 Z M74.75,2.84217094e-14 L74.75,24.50025 L25.125,24.5 L25.125,2.84217094e-14 L74.75,2.84217094e-14 Z M68.625,15.011 C66.767,15.011 65.26075,16.51725 65.26075,18.37525 C65.26075,20.2335 66.767,21.73975 68.625,21.73975 C70.48325,21.73975 71.9895,20.2335 71.9895,18.37525 C71.9895,16.51725 70.48325,15.011 68.625,15.011 Z M56.375,15.01075 C54.517,15.01075 53.01075,16.517 53.01075,18.375 C53.01075,20.2335 54.517,21.73975 56.375,21.73975 C58.23325,21.73975 59.7395,20.2335 59.7395,18.375 C59.7395,16.517 58.23325,15.01075 56.375,15.01075 Z M43.5,15.011 C41.642,15.011 40.13575,16.51725 40.13575,18.37525 C40.13575,20.2335 41.642,21.73975 43.5,21.73975 C45.35825,21.73975 46.8645,20.2335 46.8645,18.37525 C46.8645,16.51725 45.35825,15.011 43.5,15.011 Z M31.25,15.01075 C29.392,15.01075 27.88575,16.517 27.88575,18.375 C27.88575,20.2335 29.392,21.73975 31.25,21.73975 C33.10825,21.73975 34.6145,20.2335 34.6145,18.375 C34.6145,16.517 33.10825,15.01075 31.25,15.01075 Z M68.625,2.76075 C66.767,2.76075 65.26075,4.267 65.26075,6.125 C65.26075,7.9835 66.767,9.48975 68.625,9.48975 C70.48325,9.48975 71.9895,7.9835 71.9895,6.125 C71.9895,4.267 70.48325,2.76075 68.625,2.76075 Z M56.375,2.76075 C54.517,2.76075 53.01075,4.267 53.01075,6.125 C53.01075,7.98325 54.517,9.4895 56.375,9.4895 C58.23325,9.4895 59.7395,7.98325 59.7395,6.125 C59.7395,4.267 58.23325,2.76075 56.375,2.76075 Z M43.5,2.76075 C41.642,2.76075 40.13575,4.267 40.13575,6.125 C40.13575,7.9835 41.642,9.48975 43.5,9.48975 C45.35825,9.48975 46.8645,7.9835 46.8645,6.125 C46.8645,4.267 45.35825,2.76075 43.5,2.76075 Z M31.25,2.76075 C29.392,2.76075 27.88575,4.267 27.88575,6.125 C27.88575,7.98325 29.392,9.4895 31.25,9.4895 C33.10825,9.4895 34.6145,7.98325 34.6145,6.125 C34.6145,4.267 33.10825,2.76075 31.25,2.76075 Z" id="Combined-Shape"></path>
        </g>
    </g>
</svg>