<?xml version="1.0" encoding="UTF-8"?>
<svg width="24px" height="24px" viewBox="0 0 24 24" version="1.1" xmlns="http://www.w3.org/2000/svg" xmlns:xlink="http://www.w3.org/1999/xlink">
    <title>colour / play red</title>
    <defs>
        <path d="M2.39989027,19.2 C3.72543701,19.2 4.8,20.2745221 4.8,21.5998354 C4.8,22.9254779 3.72543701,24 2.39989027,24 C1.07456299,24 0,22.9254779 0,21.5998354 C0,20.2745221 1.07456299,19.2 2.39989027,19.2 Z M21.5998903,19.2 C22.925437,19.2 24,20.274563 24,21.5998903 C24,22.925437 22.925437,24 21.5998903,24 C20.274563,24 19.2,22.925437 19.2,21.5998903 C19.2,20.274563 20.274563,19.2 21.5998903,19.2 Z M7.39989027,14 C8.72543701,14 9.8,15.074563 9.8,16.3998903 C9.8,17.725437 8.72543701,18.8 7.39989027,18.8 C6.07456299,18.8 5,17.725437 5,16.3998903 C5,15.074563 6.07456299,14 7.39989027,14 Z M16.3998903,14 C17.725437,14 18.8,15.074563 18.8,16.3998903 C18.8,17.725437 17.725437,18.8 16.3998903,18.8 C15.074563,18.8 14,17.725437 14,16.3998903 C14,15.074563 15.074563,14 16.3998903,14 Z M11.9998903,9.6 C13.325437,9.6 14.4,10.674563 14.4,11.9998903 C14.4,13.325437 13.325437,14.4 11.9998903,14.4 C10.674563,14.4 9.6,13.325437 9.6,11.9998903 C9.6,10.674563 10.674563,9.6 11.9998903,9.6 Z M16.3998903,5 C17.725437,5 18.8,6.07452206 18.8,7.39983541 C18.8,8.72547794 17.725437,9.8 16.3998903,9.8 C15.074563,9.8 14,8.72547794 14,7.39983541 C14,6.07452206 15.074563,5 16.3998903,5 Z M7.39989027,5 C8.72543701,5 9.8,6.07452206 9.8,7.39983541 C9.8,8.72547794 8.72543701,9.8 7.39989027,9.8 C6.07456299,9.8 5,8.72547794 5,7.39983541 C5,6.07452206 6.07456299,5 7.39989027,5 Z M21.5998903,0 C22.925437,0 24,1.07452206 24,2.39983541 C24,3.72547794 22.925437,4.8 21.5998903,4.8 C20.274563,4.8 19.2,3.72547794 19.2,2.39983541 C19.2,1.07452206 20.274563,0 21.5998903,0 Z M2.39989027,0 C3.72543701,0 4.8,1.07456299 4.8,2.39992685 C4.8,3.72543701 3.72543701,4.8 2.39989027,4.8 C1.07456299,4.8 0,3.72543701 0,2.39992685 C0,1.07456299 1.07456299,0 2.39989027,0 Z" id="path-1"></path>
    </defs>
    <g id="BFA-website" stroke="none" stroke-width="1" fill="none" fill-rule="evenodd">
        <g id="icon-/-close">
            <mask id="mask-2" fill="white">
                <use xlink:href="#path-1"></use>
            </mask>
            <use id="Mask" fill="#000" xlink:href="#path-1"></use>
            <g id="Group" mask="url(#mask-2)" fill="#000">
                <g id="colour-/-play-red">
                    <rect id="Rectangle" x="0" y="0" width="24" height="24"></rect>
                </g>
            </g>
        </g>
    </g>
</svg>