<?xml version="1.0" encoding="UTF-8"?>
<svg width="186px" height="306px" viewBox="0 0 186 306" version="1.1" xmlns="http://www.w3.org/2000/svg" xmlns:xlink="http://www.w3.org/1999/xlink">
    <g stroke="none" stroke-width="1" fill="none" fill-rule="evenodd">
        <g transform="translate(0.000500, 0.919800)" fill="#FF351F">
            <path d="M152.26735,238.91795 C170.38785,238.91795 185.07735,253.60745 185.07735,271.72545 C185.07735,289.84795 170.38785,304.53745 152.26735,304.53745 C134.14985,304.53745 119.46035,289.84795 119.46035,271.72545 C119.46035,253.60745 134.14985,238.91795 152.26735,238.91795" id="Fill-18" transform="translate(152.268850, 271.727700) rotate(-270.000000) translate(-152.268850, -271.727700) "></path>
            <path d="M152.26735,119.45895 C170.38785,119.45895 185.07735,134.14845 185.07735,152.26645 C185.07735,170.38895 170.38785,185.07845 152.26735,185.07845 C134.14985,185.07845 119.46035,170.38895 119.46035,152.26645 C119.46035,134.14845 134.14985,119.45895 152.26735,119.45895" id="Fill-20" transform="translate(152.268850, 152.268700) rotate(-270.000000) translate(-152.268850, -152.268700) "></path>
            <path d="M152.2686,0.00125 C170.3891,0.00125 185.0786,14.69075 185.0786,32.80875 C185.0786,50.92875 170.3891,65.61825 152.2686,65.61825 C134.1511,65.61825 119.4616,50.92875 119.4616,32.80875 C119.4616,14.69075 134.1511,0.00125 152.2686,0.00125" id="Fill-22" transform="translate(152.270100, 32.809750) rotate(-270.000000) translate(-152.270100, -32.809750) "></path>
            <path d="M32.80825,65.6195 C14.69075,65.6195 0.00125,50.93 0.00125,32.8075 C0.00125,14.6895 14.69075,3.48165941e-13 32.80825,3.48165941e-13 C50.92875,3.48165941e-13 65.61825,14.6895 65.61825,32.8075 C65.61825,50.93 50.92875,65.6195 32.80825,65.6195" id="Fill-24" transform="translate(32.809750, 32.809750) rotate(-270.000000) translate(-32.809750, -32.809750) "></path>
            <path d="M32.807,185.0772 C14.6895,185.0772 -7.95807864e-13,170.3877 -7.95807864e-13,152.2672 C-7.95807864e-13,134.1497 14.6895,119.4602 32.807,119.4602 C50.9275,119.4602 65.617,134.1497 65.617,152.2672 C65.617,170.3877 50.9275,185.0772 32.807,185.0772" id="Fill-26" transform="translate(32.808500, 152.268700) rotate(-270.000000) translate(-32.808500, -152.268700) "></path>
            <path d="M32.807,304.5362 C14.6895,304.5362 -7.95807864e-13,289.8467 -7.95807864e-13,271.7262 C-7.95807864e-13,253.6087 14.6895,238.9192 32.807,238.9192 C50.9275,238.9192 65.617,253.6087 65.617,271.7262 C65.617,289.8467 50.9275,304.5362 32.807,304.5362" id="Fill-28" transform="translate(32.808500, 271.727700) rotate(-270.000000) translate(-32.808500, -271.727700) "></path>
        </g>
    </g>
</svg>