<?xml version="1.0" encoding="UTF-8"?>
<svg width="425px" height="187px" viewBox="0 0 425 187" version="1.1" xmlns="http://www.w3.org/2000/svg" xmlns:xlink="http://www.w3.org/1999/xlink">
    <g id="BFA-website" stroke="none" stroke-width="1" fill="none" fill-rule="evenodd">
        <g id="Group-6">
            <g transform="translate(0.921050, 0.920900)">
                <path d="M391.18395,3.41060513e-13 C409.30445,3.41060513e-13 423.99395,14.69 423.99395,32.8075 C423.99395,50.93 409.30445,65.6195 391.18395,65.6195 C373.06645,65.6195 358.37695,50.93 358.37695,32.8075 C358.37695,14.69 373.06645,3.41060513e-13 391.18395,3.41060513e-13" id="Fill-32" fill="#6475F5"></path>
                <path d="M271.72495,3.41060513e-13 C289.84545,3.41060513e-13 304.53495,14.69 304.53495,32.8075 C304.53495,50.93 289.84545,65.6195 271.72495,65.6195 C253.60745,65.6195 238.91795,50.93 238.91795,32.8075 C238.91795,14.69 253.60745,3.41060513e-13 271.72495,3.41060513e-13" id="Fill-34" fill="#6475F5"></path>
                <path d="M152.26595,3.41060513e-13 C170.38645,3.41060513e-13 185.07595,14.69 185.07595,32.8075 C185.07595,50.93 170.38645,65.6195 152.26595,65.6195 C134.14845,65.6195 119.45895,50.93 119.45895,32.8075 C119.45895,14.69 134.14845,3.41060513e-13 152.26595,3.41060513e-13" id="Fill-36" fill="#6475F5"></path>
                <path d="M32.807,8.52651283e-14 C50.9275,8.52651283e-14 65.617,14.69 65.617,32.8075 C65.617,50.9275 50.9275,65.617 32.807,65.617 C14.6895,65.617 -7.95807864e-13,50.9275 -7.95807864e-13,32.8075 C-7.95807864e-13,14.69 14.6895,8.52651283e-14 32.807,8.52651283e-14" id="Fill-38" fill="#6475F5"></path>
                <path d="M32.807,185.0786 C14.6895,185.0786 -7.95807864e-13,170.3891 -7.95807864e-13,152.2666 C-7.95807864e-13,134.1491 14.6895,119.4591 32.807,119.4591 C50.9275,119.4591 65.617,134.1491 65.617,152.2666 C65.617,170.3891 50.9275,185.0786 32.807,185.0786" id="Fill-40" fill="#6475F5"></path>
                <path d="M152.26595,185.0786 C134.14845,185.0786 119.45895,170.3891 119.45895,152.2691 C119.45895,134.1511 134.14845,119.4616 152.26595,119.4616 C170.38645,119.4616 185.07595,134.1511 185.07595,152.2691 C185.07595,170.3891 170.38645,185.0786 152.26595,185.0786" id="Fill-42" fill="#6475F5"></path>
                <path d="M271.72495,185.0786 C253.60745,185.0786 238.91795,170.3891 238.91795,152.2691 C238.91795,134.1511 253.60745,119.4616 271.72495,119.4616 C289.84545,119.4616 304.53495,134.1511 304.53495,152.2691 C304.53495,170.3891 289.84545,185.0786 271.72495,185.0786" id="Fill-44" fill="#6475F5"></path>
                <path d="M391.18395,185.0786 C373.06645,185.0786 358.37695,170.3891 358.37695,152.2691 C358.37695,134.1511 373.06645,119.4616 391.18395,119.4616 C409.30445,119.4616 423.99395,134.1511 423.99395,152.2691 C423.99395,170.3891 409.30445,185.0786 391.18395,185.0786" id="Fill-46" fill="#6475F5"></path>
            </g>
        </g>
    </g>
</svg>