<?xml version="1.0" encoding="UTF-8"?>
<svg width="427px" height="307px" viewBox="0 0 427 307" version="1.1" xmlns="http://www.w3.org/2000/svg" xmlns:xlink="http://www.w3.org/1999/xlink">
    <g stroke="none" stroke-width="1" fill="none" fill-rule="evenodd">
        <g transform="translate(0.921050, 0.920900)" fill="#FF351F">
            <path d="M392.26595,120 C410.38645,120 425.07595,134.6895 425.07595,152.8075 C425.07595,170.93 410.38645,185.6195 392.26595,185.6195 C374.14845,185.6195 359.45895,170.93 359.45895,152.8075 C359.45895,134.6895 374.14845,120 392.26595,120"></path>
            <path d="M272.807,120 C290.9275,120 305.617,134.6895 305.617,152.8075 C305.617,170.9275 290.9275,185.617 272.807,185.617 C254.6895,185.617 240,170.9275 240,152.8075 C240,134.6895 254.6895,120 272.807,120"></path>
            <path d="M272.807,305.0786 C254.6895,305.0786 240,290.3891 240,272.2661 C240,254.1486 254.6895,239.4591 272.807,239.4591 C290.9275,239.4591 305.617,254.1486 305.617,272.2661 C305.617,290.3891 290.9275,305.0786 272.807,305.0786"></path>
            <path d="M392.26595,305.0786 C374.14845,305.0786 359.45895,290.3891 359.45895,272.2686 C359.45895,254.1511 374.14845,239.4616 392.26595,239.4616 C410.38645,239.4616 425.07595,254.1511 425.07595,272.2686 C425.07595,290.3891 410.38645,305.0786 392.26595,305.0786" ></path>
            <path d="M152.26595,3.41060513e-13 C170.38645,3.41060513e-13 185.07595,14.6895 185.07595,32.8075 C185.07595,50.93 170.38645,65.6195 152.26595,65.6195 C134.14845,65.6195 119.45895,50.93 119.45895,32.8075 C119.45895,14.6895 134.14845,3.41060513e-13 152.26595,3.41060513e-13" ></path>
            <path d="M32.807,1.13686838e-13 C50.9275,1.13686838e-13 65.617,14.6895 65.617,32.8075 C65.617,50.9275 50.9275,65.617 32.807,65.617 C14.6895,65.617 -7.95807864e-13,50.9275 -7.95807864e-13,32.8075 C-7.95807864e-13,14.6895 14.6895,1.13686838e-13 32.807,1.13686838e-13" ></path>
            <path d="M32.807,185.0786 C14.6895,185.0786 -7.95807864e-13,170.3891 -7.95807864e-13,152.2661 C-7.95807864e-13,134.1486 14.6895,119.4591 32.807,119.4591 C50.9275,119.4591 65.617,134.1486 65.617,152.2661 C65.617,170.3891 50.9275,185.0786 32.807,185.0786" ></path>
            <path d="M152.26595,185.0786 C134.14845,185.0786 119.45895,170.3891 119.45895,152.2686 C119.45895,134.1511 134.14845,119.4616 152.26595,119.4616 C170.38645,119.4616 185.07595,134.1511 185.07595,152.2686 C185.07595,170.3891 170.38645,185.0786 152.26595,185.0786"></path>
        </g>
    </g>
</svg>