<?xml version="1.0" encoding="UTF-8"?>
<svg width="307px" height="427px" viewBox="0 0 307 427" version="1.1" xmlns="http://www.w3.org/2000/svg" xmlns:xlink="http://www.w3.org/1999/xlink">
    <title>Group 4</title>
    <g stroke="none" stroke-width="1" fill="none" fill-rule="evenodd">
        <g transform="translate(0.921050, 0.920900)" fill="#FF351F">
            <path d="M271.72495,3.41060513e-13 C289.84545,3.41060513e-13 304.53495,14.6895 304.53495,32.8075 C304.53495,50.93 289.84545,65.6195 271.72495,65.6195 C253.60745,65.6195 238.91795,50.93 238.91795,32.8075 C238.91795,14.6895 253.60745,3.41060513e-13 271.72495,3.41060513e-13" id="Fill-18"></path>
            <path d="M152.26595,3.41060513e-13 C170.38645,3.41060513e-13 185.07595,14.6895 185.07595,32.8075 C185.07595,50.93 170.38645,65.6195 152.26595,65.6195 C134.14845,65.6195 119.45895,50.93 119.45895,32.8075 C119.45895,14.6895 134.14845,3.41060513e-13 152.26595,3.41060513e-13" id="Fill-20"></path>
            <path d="M32.807,1.13686838e-13 C50.9275,1.13686838e-13 65.617,14.6895 65.617,32.8075 C65.617,50.9275 50.9275,65.617 32.807,65.617 C14.6895,65.617 -7.95807864e-13,50.9275 -7.95807864e-13,32.8075 C-7.95807864e-13,14.6895 14.6895,1.13686838e-13 32.807,1.13686838e-13" id="Fill-22"></path>
            <path d="M32.807,185.0786 C14.6895,185.0786 -7.95807864e-13,170.3891 -7.95807864e-13,152.2666 C-7.95807864e-13,134.1486 14.6895,119.4591 32.807,119.4591 C50.9275,119.4591 65.617,134.1486 65.617,152.2666 C65.617,170.3891 50.9275,185.0786 32.807,185.0786" id="Fill-24"></path>
            <path d="M152.26595,185.0786 C134.14845,185.0786 119.45895,170.3891 119.45895,152.2686 C119.45895,134.1511 134.14845,119.4616 152.26595,119.4616 C170.38645,119.4616 185.07595,134.1511 185.07595,152.2686 C185.07595,170.3891 170.38645,185.0786 152.26595,185.0786" id="Fill-26"></path>
            <path d="M271.72495,185.0786 C253.60745,185.0786 238.91795,170.3891 238.91795,152.2686 C238.91795,134.1511 253.60745,119.4616 271.72495,119.4616 C289.84545,119.4616 304.53495,134.1511 304.53495,152.2686 C304.53495,170.3891 289.84545,185.0786 271.72495,185.0786" id="Fill-28"></path>
            <path d="M272.26595,240 C290.38645,240 305.07595,254.6895 305.07595,272.8075 C305.07595,290.93 290.38645,305.6195 272.26595,305.6195 C254.14845,305.6195 239.45895,290.93 239.45895,272.8075 C239.45895,254.6895 254.14845,240 272.26595,240" id="Fill-51"></path>
            <path d="M152.807,240 C170.9275,240 185.617,254.6895 185.617,272.8075 C185.617,290.9275 170.9275,305.617 152.807,305.617 C134.6895,305.617 120,290.9275 120,272.8075 C120,254.6895 134.6895,240 152.807,240" id="Fill-53"></path>
            <path d="M152.807,425.0786 C134.6895,425.0786 120,410.3891 120,392.2661 C120,374.1486 134.6895,359.4591 152.807,359.4591 C170.9275,359.4591 185.617,374.1486 185.617,392.2661 C185.617,410.3891 170.9275,425.0786 152.807,425.0786" id="Fill-55"></path>
            <path d="M272.26595,425.0786 C254.14845,425.0786 239.45895,410.3891 239.45895,392.2686 C239.45895,374.1511 254.14845,359.4616 272.26595,359.4616 C290.38645,359.4616 305.07595,374.1511 305.07595,392.2686 C305.07595,410.3891 290.38645,425.0786 272.26595,425.0786" id="Fill-57"></path>
        </g>
    </g>
</svg>