<?xml version="1.0" encoding="UTF-8"?>
<svg width="32px" height="32px" viewBox="0 0 32 32" version="1.1" xmlns="http://www.w3.org/2000/svg" xmlns:xlink="http://www.w3.org/1999/xlink">
    <title>icon / 32px / Download</title>
    <g id="icon-/-32px-/-Download" stroke="none" stroke-width="1" fill="none" fill-rule="evenodd">
        <path d="M29,20.998 C29,20.446 28.552,19.999 28,19.999 L23,19.999 L23,23.999 L9,23.999 L9,19.999 L4,19.999 C3.448,19.999 3,20.446 3,20.998 L3,28.998 C3,29.551 3.448,29.999 4,29.999 L28,29.999 C28.552,29.999 29,29.551 29,28.998 L29,20.998 Z M21,17.999 L16.002,17.999 L16,17.999 L15.997,17.999 L11,17.999 L11,21.999 L21,21.999 L21,17.999 Z M29,31.999 L3,31.999 C1.896,31.999 1,31.104 1,29.999 L1,19.999 L1,17.999 L5,3.999 L7,3.999 L9,3.999 L9,5.999 L6.428,5.999 L3,17.998 L15.995,17.998 C15.829,17.997 15.68,17.95 15.542,17.882 C15.347,17.833 15.16,17.752 15.007,17.599 L9.329,11.911 C8.881,11.462 8.881,10.735 9.329,10.286 C9.777,9.837 10.503,9.837 10.951,10.286 L14.973,14.314 L14.973,0.999 C14.973,0.446 15.433,0 16,0 C16.567,0 17.026,0.446 17.026,0.999 L17.026,14.243 L20.977,10.286 C21.425,9.837 22.151,9.837 22.599,10.286 C23.047,10.735 23.047,11.462 22.599,11.911 L16.921,17.599 C16.795,17.724 16.645,17.807 16.488,17.862 C16.342,17.94 16.183,17.997 16.005,17.998 L29,17.998 L25.572,5.999 L23,5.999 L23,3.999 L25,3.999 L27,3.999 L31,17.999 L31,19.999 L31,29.999 C31,31.104 30.104,31.999 29,31.999 L29,31.999 Z" id="Icon-/-32px-/-Download" fill="#FFFFFF"></path>
    </g>
</svg>