<svg viewBox="0 0 833 449" xmlns="http://www.w3.org/2000/svg">
    <path
        d="M.2 336h20.1v109.4H.2V336zm128 79.8L79.7 336H54.1v109.4h20.2v-79.8l48.4 79.8h25.8V336h-20.3v79.8zm130.5-10.9c-1.7 12.1-13.1 25-30.9 25-20 0-34-16.2-34-39.4 0-23.8 13.3-39.1 34-39.1 19.9 0 29.8 13.5 30.9 26.9l.1 1.4h20.9l-.2-1.6c-2.8-27-23.1-44.5-51.8-44.5-33.3 0-54.9 22.4-54.9 57 0 34.3 22 57.3 54.9 57.3 22.8 0 47.7-13.1 51.8-42.5l.2-1.7h-20.9l-.1 1.2zm68.4-68.9h-20.2v109.4h67.8v-18.5h-47.6V336zm132.4 67.2c0 16.2-9.5 26.8-24.2 27h-.3c-14.6 0-24-10.6-24-27V336h-20.8v67.5c0 26.7 18.1 44.7 45.1 44.7s45.1-17.9 45.1-44.7V336h-20.9v67.2zm92-67.2h-41.9v109.4h41.9c32.4 0 54.2-22 54.2-54.7S583.9 336 551.5 336zm0 90.9h-21.8v-72.5h21.8c20.9.5 33.4 14 33.4 36.2-.1 26.6-17.3 36.2-33.4 36.3zm98.3-26.5h50.8v-18.5h-50.8v-27.4h56.7V336h-77v109.4h77.2v-18.5h-56.9v-26.5zM777.9 336H736v109.4h41.9c32.4 0 54.2-22 54.2-54.7.1-32.7-21.7-54.7-54.2-54.7zm0 90.9h-21.8v-72.5h21.8c20.9.5 33.4 14 33.4 36.2 0 26.6-17.2 36.2-33.4 36.3zm-132-169.3V215l37.1-66.8h-22.4l-25.1 47.7-24.7-47.7h-22.4l36.9 66.8v42.6h20.6zm-251.3-24.9l-26.9-9.6v-40.5l26.9-9.6v-21.4l-109.4 41.6v19.4l109.4 41.6v-21.5zm-45.4-16.1l-38.7-13.7 38.7-13.7v27.4zM225.9 91.2h-47.6V.3h-20.2v109.4h67.8V91.2zM88 34.8C88 12.2 68.7.3 49.6.3H.2v109.4h20.1V68.5h29.2C72.2 68.5 88 54.6 88 34.8zM45.6 50H20.3V18.7h25.3c12.6 0 21.5 6.6 21.5 16C67.1 44 58.7 50 45.6 50z"
        fill="#000" fill-rule="nonzero" />
</svg>