<?xml version="1.0" encoding="UTF-8"?>
<svg width="24px" height="24px" viewBox="0 0 24 24" version="1.1" xmlns="http://www.w3.org/2000/svg" xmlns:xlink="http://www.w3.org/1999/xlink">
    <title>icon / menu</title>
    <defs>
        <filter id="filter-1">
            <feColorMatrix in="SourceGraphic" type="matrix" values="0 0 0 0 0.000000 0 0 0 0 0.000000 0 0 0 0 0.000000 0 0 0 1.000000 0"></feColorMatrix>
        </filter>
        <path d="M2.39989027,19.2 C3.72543701,19.2 4.8,20.2745221 4.8,21.5998354 C4.8,22.9254779 3.72543701,24 2.39989027,24 C1.07456299,24 1.81632487e-13,22.9254779 1.81632487e-13,21.5998354 C1.81632487e-13,20.2745221 1.07456299,19.2 2.39989027,19.2 Z M11.9998903,19.2 C13.325437,19.2 14.4,20.274563 14.4,21.5998903 C14.4,22.925437 13.325437,24 11.9998903,24 C10.674563,24 9.6,22.925437 9.6,21.5998903 C9.6,20.274563 10.674563,19.2 11.9998903,19.2 Z M21.5998903,19.2 C22.925437,19.2 24,20.274563 24,21.5998903 C24,22.925437 22.925437,24 21.5998903,24 C20.274563,24 19.2,22.925437 19.2,21.5998903 C19.2,20.274563 20.274563,19.2 21.5998903,19.2 Z M2.39989027,9.6 C3.72543701,9.6 4.8,10.6745221 4.8,11.9998354 C4.8,13.3254779 3.72543701,14.4 2.39989027,14.4 C1.07456299,14.4 1.81632487e-13,13.3254779 1.81632487e-13,11.9998354 C1.81632487e-13,10.6745221 1.07456299,9.6 2.39989027,9.6 Z M11.9998903,9.6 C13.325437,9.6 14.4,10.674563 14.4,11.9998903 C14.4,13.325437 13.325437,14.4 11.9998903,14.4 C10.674563,14.4 9.6,13.325437 9.6,11.9998903 C9.6,10.674563 10.674563,9.6 11.9998903,9.6 Z M21.5998903,9.6 C22.925437,9.6 24,10.674563 24,11.9998903 C24,13.325437 22.925437,14.4 21.5998903,14.4 C20.274563,14.4 19.2,13.325437 19.2,11.9998903 C19.2,10.674563 20.274563,9.6 21.5998903,9.6 Z M21.5998903,0 C22.925437,0 24,1.07452206 24,2.39983541 C24,3.72547794 22.925437,4.8 21.5998903,4.8 C20.274563,4.8 19.2,3.72547794 19.2,2.39983541 C19.2,1.07452206 20.274563,0 21.5998903,0 Z M11.9998903,0 C13.325437,0 14.4,1.07452206 14.4,2.39983541 C14.4,3.72547794 13.325437,4.8 11.9998903,4.8 C10.674563,4.8 9.6,3.72547794 9.6,2.39983541 C9.6,1.07452206 10.674563,0 11.9998903,0 Z M2.39989027,0 C3.72543701,0 4.8,1.07456299 4.8,2.39992685 C4.8,3.72543701 3.72543701,4.8 2.39989027,4.8 C1.07456299,4.8 1.81632487e-13,3.72543701 1.81632487e-13,2.39992685 C1.81632487e-13,1.07456299 1.07456299,0 2.39989027,0 Z" id="path-2"></path>
    </defs>
    <g id="Symbols" stroke="none" stroke-width="1" fill="none" fill-rule="evenodd">
        <g id="header-/-m-v1" transform="translate(-331.000000, -32.000000)">
            <g id="icon-/-menu" transform="translate(331.000000, 32.000000)" filter="url(#filter-1)">
                <g>
                    <mask id="mask-3" fill="white">
                        <use xlink:href="#path-2"></use>
                    </mask>
                    <use id="Mask" fill="#FF351F" xlink:href="#path-2"></use>
                    <g id="Group" mask="url(#mask-3)" fill="#FF351F">
                        <g id="colour-/-play-red">
                            <rect id="Rectangle" x="0" y="0" width="24" height="24"></rect>
                        </g>
                    </g>
                </g>
            </g>
        </g>
    </g>
</svg>