<?xml version="1.0" encoding="UTF-8"?>
<svg width="32px" height="32px" viewBox="0 0 32 32" version="1.1" xmlns="http://www.w3.org/2000/svg" xmlns:xlink="http://www.w3.org/1999/xlink">
    <title>Icon / 32px / Print</title>
    <g id="Symbols" stroke="none" stroke-width="1" fill="none" fill-rule="evenodd">
        <g id="icon-/-32px-/-Print" fill="#FFFFFF">
            <path d="M22,2 L10,2 L10,6 L8,6 L8,0 L24,0 L24,6 L22,6 L22,2 Z M4,12 L4,12 L4,11.999 L4,10.002 L5.989,10.002 C5.992,10.002 5.995,10 5.999,10 C6.003,10 6.006,10.002 6.01,10.002 L8,10.002 L8,14.002 L4,14.002 L4,12 Z M10,12.001 C10,12 10,12 10,12.001 L10,11.998 L10,10.002 L11.989,10.002 C11.992,10.002 11.996,10 11.999,10 C12.003,10 12.006,10.002 12.009,10.002 L14,10.002 L14,14.002 L10,14.002 L10,12.001 Z M30,9 C30,8.447 29.552,8 29,8 L3,8 C2.447,8 2,8.447 2,9 L2,23 C2,23.553 2.448,24 3,24 L8,24 L8,18 L24,18 L24,24 L29,24 C29.552,24 30,23.552 30,23 L30,9 Z M10,30 L22,30 L22,20 L10,20 L10,30 Z M31,26 L24,26 L24,32 L8,32 L8,26 L1,26 C0.448,26 0,25.553 0,25 L0,7 C0,6.449 0.447,6 1,6 L10,6 L22,6 L31,6 C31.552,6 32,6.449 32,7 L32,25 C32,25.552 31.552,26 31,26 L31,26 Z" id="Icon-/-32px-/-Print"></path>
        </g>
    </g>
</svg>