<?xml version="1.0" standalone="no"?>
<!DOCTYPE svg PUBLIC "-//W3C//DTD SVG 20010904//EN"
 "http://www.w3.org/TR/2001/REC-SVG-20010904/DTD/svg10.dtd">
<svg version="1.0" xmlns="http://www.w3.org/2000/svg"
 width="294.000000pt" height="294.000000pt" viewBox="0 0 294.000000 294.000000"
 preserveAspectRatio="xMidYMid meet">
<metadata>
Created by potrace 1.11, written by Peter Selinger 2001-2013
</metadata>
<g transform="translate(0.000000,294.000000) scale(0.100000,-0.100000)"
fill="#000000" stroke="none">
<path d="M1078 2849 c-43 -44 -78 -85 -78 -90 0 -6 -4 -7 -10 -4 -5 3 -10 2
-10 -4 0 -15 -46 -62 -53 -54 -4 3 -7 1 -7 -5 0 -7 -22 -34 -50 -61 -27 -26
-46 -51 -43 -55 3 -3 -1 -6 -11 -6 -9 0 -15 -3 -13 -7 2 -5 -4 -16 -15 -25
-10 -10 -18 -15 -19 -10 0 4 -4 -3 -9 -15 -5 -13 -16 -23 -25 -23 -8 0 -15 -7
-15 -15 0 -8 -5 -15 -11 -15 -5 0 -7 -5 -4 -10 4 -6 3 -9 -2 -8 -10 3 -83 -69
-76 -75 2 -3 -5 -8 -16 -12 -12 -3 -21 -13 -21 -21 0 -8 -3 -13 -7 -11 -5 2
-16 -4 -25 -15 -10 -10 -15 -18 -12 -18 3 0 -26 -31 -66 -70 -40 -38 -69 -70
-66 -70 4 0 1 -6 -6 -14 -7 -8 -15 -13 -18 -11 -3 2 -11 -3 -18 -11 -7 -8 -9
-14 -5 -14 4 -1 -3 -7 -17 -15 -14 -8 -22 -14 -18 -15 4 0 -16 -23 -45 -51
-29 -28 -51 -55 -50 -60 2 -5 0 -8 -5 -7 -4 2 -34 -26 -67 -62 -33 -35 -79
-83 -102 -107 -24 -24 -43 -46 -43 -51 0 -4 13 -19 30 -34 16 -14 26 -28 23
-32 -4 -3 -2 -6 4 -6 15 0 54 -36 46 -44 -3 -3 0 -6 9 -6 18 0 58 -41 58 -61
0 -12 2 -12 10 1 6 10 10 11 10 3 0 -7 29 -41 65 -76 36 -35 65 -62 65 -60 0
1 49 -45 110 -105 60 -59 163 -160 229 -224 65 -64 122 -114 125 -111 3 4 6 1
6 -5 0 -6 25 -35 56 -64 31 -29 94 -90 139 -135 46 -46 88 -83 95 -83 6 0 9
-4 6 -8 -2 -4 9 -17 25 -27 16 -11 29 -26 29 -32 0 -7 4 -13 10 -13 5 0 66
-55 134 -122 68 -68 138 -135 155 -150 17 -15 31 -32 31 -38 0 -5 4 -10 10
-10 5 0 48 -38 94 -84 46 -47 86 -82 89 -79 3 2 8 -4 12 -14 3 -10 27 -35 51
-56 l46 -37 91 96 c51 53 127 132 170 177 42 45 77 85 77 90 0 4 5 5 10 2 6
-3 10 -2 10 3 0 5 38 48 84 95 47 48 83 87 81 87 -1 0 13 17 34 38 20 21 39
36 44 34 4 -2 7 1 7 6 0 5 32 42 70 81 38 40 70 77 70 82 0 6 3 9 8 7 4 -2 19
9 34 24 15 15 25 28 23 28 -2 0 19 22 46 49 26 26 45 51 41 55 -4 4 -1 6 7 4
8 -1 20 7 26 20 7 13 15 23 19 23 3 -1 6 1 6 4 1 8 152 155 160 155 4 0 7 8 5
17 -2 10 -4 24 -4 32 -1 8 -4 12 -7 9 -3 -4 -47 35 -97 85 -51 50 -95 91 -99
89 -5 -1 -8 2 -8 8 0 13 -37 50 -51 50 -5 0 -7 5 -4 10 3 6 2 10 -4 10 -5 0
-55 45 -111 100 -56 55 -106 100 -112 100 -6 0 -9 3 -5 6 3 3 -14 23 -38 44
-24 21 -41 41 -38 44 4 3 2 6 -4 6 -6 0 -30 19 -54 42 -24 24 -47 42 -51 40
-5 -1 -8 3 -8 10 0 12 -149 158 -162 158 -4 0 -8 8 -8 17 0 9 -2 14 -5 11 -3
-3 -48 37 -100 88 -52 52 -99 94 -104 94 -6 0 -11 7 -11 15 0 8 -6 15 -13 15
-14 0 -67 56 -67 71 0 5 -6 8 -12 6 -7 -1 -12 4 -10 11 1 6 -2 12 -6 12 -15 0
-52 37 -45 44 3 3 0 6 -7 6 -7 0 -37 25 -67 55 -30 30 -59 55 -64 55 -5 0 -9
5 -9 11 0 13 -51 55 -63 51 -5 -1 -6 1 -3 6 7 11 -65 78 -78 74 -6 -2 -8 0 -3
4 10 10 -22 44 -41 44 -9 0 -13 3 -9 6 6 7 -60 74 -74 74 -5 0 -9 5 -9 10 0
12 -81 90 -93 90 -5 0 -5 5 -2 10 12 20 -1 7 -77 -71z m91 -293 c10 -7 12 -6
6 4 -6 10 -4 11 11 5 10 -4 27 -7 37 -7 9 0 17 -3 17 -9 0 -5 3 -8 8 -7 28 6
89 -52 117 -110 29 -58 20 -192 -14 -212 -9 -5 -11 -10 -6 -10 24 0 -81 -78
-116 -86 -55 -11 -100 -14 -95 -6 3 5 -1 9 -9 9 -8 0 -15 -5 -15 -10 0 -6 -8
-3 -18 6 -10 10 -21 15 -24 12 -3 -3 -20 8 -38 25 -18 16 -36 30 -40 30 -5 0
-12 9 -15 20 -3 11 -10 20 -15 20 -5 0 -7 9 -5 20 2 11 0 20 -5 20 -4 0 -8 32
-8 70 0 39 4 70 9 70 5 0 8 3 7 8 -3 13 13 52 22 52 5 0 12 9 15 20 4 11 11
18 16 15 5 -4 9 -2 9 4 0 14 71 49 93 46 9 -2 17 0 17 5 0 10 20 8 39 -4z
m642 -569 c3 -4 15 -9 27 -10 11 0 18 -5 16 -9 -3 -4 2 -8 11 -8 19 0 97 -79
89 -91 -3 -5 0 -9 7 -9 7 0 10 -3 6 -6 -3 -3 0 -26 8 -50 7 -24 10 -42 6 -40
-4 3 -8 -12 -8 -32 -2 -39 -36 -116 -47 -105 -3 4 -6 -1 -6 -10 0 -9 -5 -17
-11 -17 -6 0 -17 -6 -24 -12 -35 -32 -44 -36 -88 -41 -26 -3 -51 -9 -56 -12
-5 -3 -12 -1 -16 5 -3 5 -20 10 -36 10 -18 0 -28 4 -24 10 3 6 -1 10 -10 10
-20 0 -77 45 -68 54 4 3 1 6 -6 6 -16 0 -53 87 -54 133 -1 20 0 37 3 37 3 0 7
10 7 22 3 33 24 69 60 103 54 50 67 57 106 59 9 0 17 3 17 6 0 9 84 6 91 -3z
m-1201 -17 c0 10 3 10 14 1 8 -6 18 -11 22 -9 18 5 102 -46 113 -68 6 -13 15
-24 21 -24 5 0 10 -7 10 -15 0 -8 4 -15 8 -15 4 0 9 -14 10 -32 2 -17 7 -37
13 -44 7 -8 6 -14 -3 -17 -10 -4 -10 -7 1 -15 9 -7 10 -12 2 -16 -6 -4 -11
-18 -11 -31 0 -13 -5 -27 -10 -30 -6 -4 -8 -11 -5 -16 4 -5 1 -9 -4 -9 -6 0
-11 -4 -11 -9 0 -18 -44 -58 -86 -79 -60 -31 -146 -30 -206 0 -30 16 -72 57
-81 81 -3 9 -10 17 -15 17 -5 0 -9 6 -10 13 0 6 -4 35 -7 63 -8 55 7 125 31
149 8 8 13 15 10 15 -3 0 11 16 33 35 21 19 45 35 54 35 9 0 19 5 22 10 3 6
17 8 31 6 13 -3 24 0 24 6 0 6 6 6 15 -2 12 -10 15 -10 15 0z m1819 -561 c32
-9 111 -82 111 -103 0 -8 6 -16 12 -18 19 -7 15 -188 -4 -188 -4 0 -8 -6 -8
-13 0 -12 -17 -31 -77 -85 -10 -9 -25 -17 -33 -16 -8 0 -19 -3 -25 -7 -21 -14
-111 -6 -155 15 -47 22 -80 49 -80 66 0 6 -5 10 -11 10 -5 0 -8 4 -5 9 4 5 2
11 -4 13 -11 3 -20 36 -23 78 -1 14 -6 28 -12 32 -7 5 -7 8 0 8 6 0 11 14 11
31 1 17 7 35 14 39 6 4 11 11 10 16 -3 15 34 64 48 64 7 0 11 4 8 9 -4 6 34
32 54 35 3 1 11 5 18 10 7 4 19 5 27 2 8 -3 17 -2 19 3 5 7 64 1 105 -10z
m-1211 -9 c1 -2 5 -3 10 -4 34 -8 82 -29 82 -37 0 -6 4 -8 8 -5 5 3 15 -6 22
-19 7 -13 16 -22 20 -20 10 6 31 -45 24 -57 -4 -7 -2 -8 4 -4 7 4 13 0 14 -11
0 -10 2 -23 2 -30 1 -6 4 -14 7 -18 18 -18 -30 -155 -54 -155 -8 0 -7 -4 3
-10 8 -5 10 -10 4 -10 -6 0 -24 -11 -40 -25 -16 -14 -40 -28 -54 -32 -14 -3
-29 -9 -35 -13 -32 -24 -180 20 -209 61 -7 10 -15 18 -17 16 -2 -1 -3 0 -2 2
1 2 -6 16 -16 30 -11 14 -21 40 -22 56 -2 17 -8 33 -14 37 -6 5 -5 8 4 8 11 0
11 3 1 15 -7 8 -8 15 -3 15 6 0 10 12 11 28 1 24 41 119 42 100 0 -5 8 0 18
10 11 9 17 20 16 23 -3 6 25 17 43 17 3 0 9 5 12 10 4 6 18 12 33 14 15 2 30
6 33 9 4 5 46 4 53 -1z m594 -585 c5 -6 8 -5 8 3 0 9 11 7 39 -7 21 -11 42
-17 46 -13 5 4 5 1 1 -5 -4 -7 -3 -13 2 -13 14 0 52 -36 45 -44 -3 -3 -1 -6 5
-6 7 0 12 -7 12 -16 0 -8 5 -12 11 -8 8 4 9 0 4 -15 -3 -11 -2 -21 3 -21 9 0
12 -16 11 -70 -1 -55 -2 -60 -10 -60 -5 0 -6 -7 -3 -14 3 -8 1 -21 -5 -28 -6
-7 -23 -28 -37 -46 -22 -27 -74 -64 -94 -67 -3 0 -11 -4 -19 -9 -10 -7 -12 -6
-6 3 6 10 3 11 -14 1 -18 -9 -26 -9 -39 2 -10 8 -13 9 -9 1 5 -8 0 -11 -13
-10 -11 1 -20 5 -20 10 0 5 -6 7 -13 4 -7 -3 -21 1 -31 9 -11 7 -23 11 -29 7
-6 -3 -7 -1 -3 5 4 7 3 12 -2 12 -17 0 -62 46 -62 63 0 10 -4 16 -9 13 -5 -4
-12 12 -16 34 -4 22 -11 42 -16 46 -5 3 -6 11 -2 17 6 10 11 35 15 85 1 6 5
12 10 12 5 0 6 5 3 10 -3 6 -1 10 4 10 6 0 11 5 11 12 0 18 72 78 103 85 15 3
29 9 32 12 6 11 79 8 87 -4z"/>
</g>
</svg>
